<svg width="52" height="52" viewBox="0 0 52 52" fill="none" xmlns="http://www.w3.org/2000/svg">
<path d="M27.1497 43.3997C26.9988 43.5508 26.8196 43.6706 26.6223 43.7524C26.425 43.8342 26.2136 43.8763 26 43.8763C25.7865 43.8763 25.575 43.8342 25.3777 43.7524C25.1805 43.6706 25.0012 43.5508 24.8503 43.3997L8.60032 27.1497C8.44923 26.9988 8.32938 26.8195 8.2476 26.6223C8.16582 26.425 8.12373 26.2135 8.12373 26C8.12373 25.7864 8.16582 25.575 8.2476 25.3777C8.32938 25.1804 8.44923 25.0012 8.60032 24.8503L24.8503 8.6003C25.1552 8.29538 25.5688 8.12408 26 8.12408C26.4312 8.12408 26.8448 8.29538 27.1497 8.6003C27.4546 8.90522 27.6259 9.31877 27.6259 9.74999C27.6259 10.1812 27.4546 10.5948 27.1497 10.8997L12.0474 26L27.1497 41.1003C27.3008 41.2512 27.4206 41.4304 27.5024 41.6277C27.5842 41.825 27.6263 42.0364 27.6263 42.25C27.6263 42.4635 27.5842 42.675 27.5024 42.8723C27.4206 43.0695 27.3008 43.2488 27.1497 43.3997ZM24.8503 24.8503C24.6992 25.0012 24.5794 25.1804 24.4976 25.3777C24.4158 25.575 24.3737 25.7864 24.3737 26C24.3737 26.2135 24.4158 26.425 24.4976 26.6223C24.5794 26.8195 24.6992 26.9988 24.8503 27.1497L41.1003 43.3997C41.4052 43.7046 41.8188 43.8759 42.25 43.8759C42.6812 43.8759 43.0948 43.7046 43.3997 43.3997C43.7046 43.0948 43.8759 42.6812 43.8759 42.25C43.8759 41.8188 43.7046 41.4052 43.3997 41.1003L28.2974 26L43.3997 10.8997C43.7046 10.5948 43.8759 10.1812 43.8759 9.74999C43.8759 9.31877 43.7046 8.90522 43.3997 8.6003C43.0948 8.29538 42.6812 8.12408 42.25 8.12408C41.8188 8.12408 41.4052 8.29538 41.1003 8.6003L24.8503 24.8503Z" fill="white"/>
</svg>
