<svg width="77" height="85" viewBox="0 0 77 85" fill="none" xmlns="http://www.w3.org/2000/svg">
<path d="M42.0059 84.5C22.6825 84.5 7.01782 81.8968 7.01782 78.6857C7.01782 77.4397 9.37637 76.285 13.3916 75.3388C16.4378 76.7109 19.8498 77.4128 23.5532 77.4128C23.9631 77.4128 24.3776 77.404 24.7944 77.3869C25.3245 77.3648 25.843 77.3298 26.3489 77.2845C26.5997 77.5307 26.8609 77.767 27.1331 77.9916C28.2216 78.8928 29.4984 79.596 30.878 79.9881C31.5653 80.1906 32.2795 80.2995 32.9925 80.3365C33.1415 80.3481 33.2903 80.352 33.439 80.352C33.6467 80.352 33.8548 80.3442 34.0625 80.3394C34.2404 80.331 34.4167 80.3079 34.594 80.2927L34.8594 80.2671C34.9475 80.2564 35.0344 80.2389 35.1219 80.2253C36.4252 80.0205 37.6752 79.6025 38.8457 79.0509C38.9264 79.0846 39.0061 79.1196 39.0874 79.1485C39.2627 79.2139 39.4406 79.27 39.6215 79.3166C39.9825 79.4129 40.359 79.4654 40.7417 79.4719C40.7819 79.4735 40.8221 79.4741 40.8623 79.4741C41.2058 79.4741 41.5538 79.4194 41.8925 79.3338C42.0782 79.2716 42.27 79.2243 42.4444 79.1332L42.7104 79.0081C42.7947 78.9598 42.876 78.9061 42.9586 78.8545C43.039 78.8007 43.1265 78.7541 43.2004 78.6928L43.4227 78.5091C43.5689 78.397 43.7195 78.2385 43.8501 78.0826C43.9321 77.9828 44.0054 77.881 44.0724 77.7783C44.6127 77.8182 45.6791 77.8908 47.0684 77.9559C47.3578 78.3535 47.6841 78.71 48.0519 79.001C48.6696 79.49 49.4042 79.7933 50.2759 79.7937C50.4477 79.7937 50.6243 79.7817 50.8071 79.7574C51.3933 79.6786 51.8674 79.363 52.2488 78.8834C52.4319 78.653 52.5936 78.385 52.7362 78.0872C53.7165 78.0846 54.7214 78.0667 55.7212 78.0278C56.1625 78.9786 56.7837 79.6413 57.6445 79.7567C57.8269 79.781 58.0045 79.793 58.1762 79.793C59.7833 79.793 60.924 78.7622 61.727 77.4374C62.4885 77.2964 63.1927 77.1276 63.8172 76.9267C64.4523 77.5771 65.5836 78.3273 66.9719 78.3273C67.4146 78.3273 67.8838 78.2508 68.3712 78.0706C69.3233 77.7184 70.3072 76.7167 71.175 75.4733C74.8524 76.3936 76.9942 77.498 76.9942 78.6857C76.9942 81.8968 61.3294 84.5 42.0059 84.5Z" fill="#FF8800"/>
<path d="M35.4533 74.5348C35.4533 74.5348 16.9131 82.5492 5.60525 68.5228C-2.30956 58.7099 0.315535 50.3323 5.52777 46.8677C9.04584 44.5303 13.7428 44.4324 17.1756 47.6406C20.1974 50.4681 20.341 53.64 19.4783 55.4307C19.1971 56.0153 18.8082 56.4515 18.3782 56.6823C15.8984 58.0132 14.0779 56.8641 12.7771 54.0619C12.5545 53.5816 11.5683 51.775 9.94349 52.4688C9.68425 52.5796 9.4504 52.7154 9.23704 52.872C6.99126 54.5201 7.17617 58.6169 8.93203 62.6531C9.77919 64.6049 10.9944 66.5412 12.4786 68.18C16.5291 72.6527 26.9538 72.1105 34.3738 70.44L35.4533 74.5348Z" fill="white"/>
<path d="M23.5017 76.2163C16.2512 76.2163 10.3912 73.5052 6.07114 68.1478C-0.716682 59.73 0.575743 52.7611 3.93587 49.0272C2.35215 53.4273 3.1613 60.0994 8.33487 66.5152C13.0028 72.3042 18.8521 74.0085 24.1239 74.1047C24.1939 74.3082 24.2678 74.5108 24.3459 74.7117L24.3589 74.7451L24.3751 74.7739C24.4762 74.9547 24.565 75.0944 24.6651 75.2467C24.7626 75.3961 24.8634 75.5413 24.9678 75.6839C25.0848 75.8462 25.2063 76.0047 25.3314 76.1602C25.1373 76.1722 24.9418 76.1823 24.7448 76.1904C24.3258 76.2079 23.912 76.2163 23.5017 76.2163Z" fill="black"/>
<path d="M18.379 56.6829C15.8983 58.0126 14.0787 56.8644 12.777 54.0629C12.5546 53.582 11.5689 51.7754 9.94369 52.4695C9.68541 52.5797 9.45001 52.7151 9.23649 52.8723L9.44285 51.6999C9.5075 51.3327 9.23866 50.9908 8.8666 50.9671L6.991 50.8476C6.50592 50.8165 6.23996 50.2685 6.5158 49.8683L7.58468 48.3173C7.82721 47.9654 7.65335 47.4793 7.24267 47.3613L5.52832 46.8678C9.04597 44.5303 13.7427 44.4318 17.1758 47.6413C21.1844 51.3891 20.1283 55.7454 18.379 56.6829Z" fill="white"/>
<path d="M18.379 56.6829C15.8983 58.0126 14.0787 56.8644 12.777 54.0629C12.5546 53.582 11.5689 51.7754 9.94369 52.4695C9.68541 52.5797 9.45001 52.7151 9.23649 52.8723L9.44285 51.6999C9.5075 51.3327 9.23866 50.9908 8.8666 50.9671L6.991 50.8476C6.50592 50.8165 6.23996 50.2685 6.5158 49.8683L7.58468 48.3173C7.82721 47.9654 7.65335 47.4793 7.24267 47.3613L5.52832 46.8678C9.04597 44.5303 13.7427 44.4318 17.1758 47.6413C21.1844 51.3891 20.1283 55.7454 18.379 56.6829Z" fill="#FF8800"/>
<path d="M23.5532 77.4128C15.9893 77.4128 9.64286 74.4849 5.13893 68.8994C1.76892 64.7203 -0.00807395 60.3876 2.75785e-05 56.3695C0.0070273 52.8975 1.33989 49.7499 3.75301 47.5074C5.65146 45.7429 8.05396 44.7033 10.5178 44.5799C13.1252 44.4502 15.6351 45.3809 17.5846 47.2038C19.7357 49.2149 20.7925 51.7222 20.4843 54.0826C20.298 55.5091 19.5996 56.7075 18.6618 57.2105C17.477 57.8453 16.3623 57.996 15.3483 57.658C14.1233 57.2497 13.0756 56.1249 12.2347 54.3156C12.037 53.8898 11.304 52.5388 10.1792 53.02C8.79479 53.6111 8.31638 55.0435 8.15879 56.1407C7.70277 59.3162 9.30023 64.4059 13.1589 67.5834C18.9826 72.3785 28.8684 71.066 34.243 69.8563C34.5654 69.785 34.8859 69.9866 34.9585 70.309C35.0311 70.6318 34.8283 70.952 34.5058 71.0249C28.9177 72.2819 18.6151 73.6268 12.3977 68.5079C8.71459 65.475 6.38264 60.0849 6.9735 55.9706C7.25796 53.9896 8.22944 52.5505 9.70897 51.9189C11.3915 51.2004 12.7062 52.4886 13.3206 53.8107C14.0174 55.3095 14.8269 56.2218 15.7271 56.5222C16.4258 56.7548 17.2006 56.6349 18.096 56.155C18.6903 55.8365 19.1618 54.9621 19.297 53.9277C19.4188 52.9941 19.4165 50.5556 16.767 48.0784C12.8825 44.4463 7.68991 45.4833 4.56819 48.3847C0.762123 51.9218 -1.128 59.22 6.07109 68.1479C10.6355 73.8082 16.9184 76.5145 24.7448 76.1904C30.6142 75.9477 35.1695 74.005 35.2149 73.9855C35.5188 73.8539 35.8708 73.9943 36.002 74.2976C36.1333 74.6009 35.9936 74.9535 35.6899 75.0844C35.4965 75.1683 30.8835 77.1351 24.7943 77.3869C24.3776 77.404 23.9631 77.4128 23.5532 77.4128Z" fill="black"/>
<path d="M65.1591 58.4098L61.1478 64.7426L50.2114 77.615L43.8012 77.0589L41.4148 76.8518L32.5737 67.8812V45.9954L33.2219 45.9921L64.0906 45.8596C64.7592 48.2696 65.4705 50.9895 65.8069 52.8087C65.837 52.9698 65.8639 53.1279 65.8859 53.2812C66.4313 56.9003 65.1591 58.4098 65.1591 58.4098Z" fill="white"/>
<path d="M33.5894 45.681C33.5894 45.681 31.7079 49.9804 27.9459 51.3628C24.1842 52.7449 19.9666 50.6871 19.9666 50.6871C19.9666 50.6871 21.8481 46.3878 25.6098 45.0054C29.3718 43.6229 33.5894 45.681 33.5894 45.681Z" fill="white"/>
<path d="M22.3138 49.2988C22.0513 49.2505 21.7998 49.1955 21.5613 49.1371C22.4405 47.8736 23.867 46.2838 25.8165 45.5673C25.9581 45.5154 26.1011 45.4684 26.2443 45.4266C26.7275 45.53 27.2084 45.5929 27.6779 45.6249C27.2991 45.6998 26.92 45.8032 26.5453 45.9409C24.6642 46.6321 23.2539 48.0518 22.3138 49.2988ZM31.2514 45.6243C30.9672 45.5763 30.6713 45.5368 30.3673 45.5089C30.5563 45.4814 30.7371 45.4512 30.9092 45.4195C31.0537 45.4519 31.1937 45.4862 31.3285 45.5216C31.3026 45.5556 31.277 45.5899 31.2514 45.6243Z" fill="white"/>
<path d="M25.1057 51.2396C23.6737 51.2393 22.3431 50.9104 21.4351 50.6139C21.658 50.2357 21.951 49.7801 22.3136 49.2988C22.9491 49.4165 23.6477 49.4958 24.3743 49.4958C25.3031 49.4958 26.2772 49.3659 27.2225 49.0188C28.4468 48.5684 29.4718 47.8091 30.2981 46.9899C30.2651 47.0414 30.2323 47.0933 30.1996 47.1448C29.4935 48.2605 28.8408 49.4103 28.2462 50.5899C28.0812 50.6664 27.9124 50.737 27.7393 50.8005C26.8709 51.1197 25.97 51.2396 25.1057 51.2396Z" fill="black"/>
<path d="M21.4351 50.6138C21.1859 50.5325 20.9688 50.4534 20.7896 50.3844C20.9645 50.0633 21.2222 49.6245 21.5611 49.1371C21.7996 49.1954 22.0511 49.2505 22.3136 49.2988C21.951 49.78 21.658 50.2357 21.4351 50.6138Z" fill="black"/>
<path d="M20.7898 50.3844C22.0151 50.8569 25.0379 51.7935 27.7396 50.8005C30.441 49.8079 32.1381 47.1374 32.7662 45.9837C31.5406 45.5106 28.518 44.575 25.8167 45.5673C23.1153 46.5599 21.4179 49.2305 20.7898 50.3844ZM25.0859 52.4416C22.2406 52.4416 19.8387 51.2908 19.7042 51.2251L19.188 50.9733L19.4184 50.447C19.4994 50.2616 21.4477 45.8972 25.4035 44.4434C29.3596 42.99 33.6703 45.0543 33.8521 45.1428L34.3683 45.3949L34.1379 45.9211C34.0569 46.1062 32.1086 50.471 28.1525 51.9247C27.1285 52.3009 26.0798 52.4416 25.0859 52.4416Z" fill="black"/>
<path d="M32.5732 44.3731C32.5732 44.3731 28.1666 45.9872 24.5666 44.2256C20.9666 42.4644 19.5369 37.9946 19.5369 37.9946C19.5369 37.9946 23.9435 36.3804 27.5434 38.142C31.1434 39.9033 32.5732 44.3731 32.5732 44.3731Z" fill="white"/>
<path d="M28.4441 44.447C27.2787 44.447 26.0013 44.261 24.8298 43.6877C22.2448 42.4229 20.8306 39.5919 20.3247 38.3799C20.6928 38.2801 21.2156 38.1566 21.8355 38.063C22.6311 39.4619 23.9409 41.1982 25.8807 42.1487C27.1005 42.745 28.4139 42.954 29.6165 42.9696L29.9811 43.3529C30.076 43.4518 30.172 43.5509 30.2734 43.6511C30.3726 43.748 30.4649 43.841 30.6046 43.9502C30.6065 43.9515 30.6078 43.9524 30.6081 43.9528L30.6146 43.9583L30.6276 43.9686L30.6532 43.99L30.7047 44.0325L30.8081 44.1171L30.905 44.1942C30.2303 44.3287 29.3728 44.447 28.4441 44.447ZM30.7316 44.0241C30.6859 44.0062 30.6516 43.9852 30.626 43.9661L30.7316 44.0241ZM30.5819 43.9288C30.5803 43.9275 30.5793 43.9262 30.578 43.9249C30.5774 43.9243 30.5767 43.9236 30.5761 43.923C30.578 43.9249 30.5799 43.9268 30.5819 43.9288Z" fill="black"/>
<path d="M20.3246 38.3799C20.8305 39.5919 22.2447 42.4229 24.8297 43.6877C27.4148 44.9525 30.5173 44.332 31.7857 43.9878C31.2795 42.7755 29.8653 39.9448 27.2803 38.68C24.6953 37.4149 21.5924 38.0358 20.3246 38.3799ZM28.4599 45.6509C27.14 45.6509 25.6752 45.4344 24.3035 44.7636C20.5178 42.9113 19.0281 38.3695 18.9665 38.1771L18.7915 37.6297L19.3307 37.4324C19.5206 37.3627 24.0209 35.7518 27.8066 37.6041C31.5922 39.4568 33.082 43.9985 33.1435 44.1907L33.3185 44.738L32.779 44.9354C32.6581 44.9798 30.7837 45.6509 28.4599 45.6509Z" fill="black"/>
<path d="M43.8014 77.0589C43.6118 77.4238 43.4031 77.7226 43.1756 77.9374C41.2552 79.747 38.8452 78.3863 38.8452 78.3863C38.826 78.3973 38.8056 78.4054 38.7865 78.4148C29.4827 82.9633 24.9008 74.4891 24.9008 74.4891C21.5646 66.1458 26.3818 55.1731 29.8651 48.9271C30.5067 47.7751 31.1027 46.7841 31.594 46.0002L32.5739 45.9954L33.2221 45.9921L34.2966 52.706L37.1856 70.7404L37.4274 72.2495C35.8738 62.2218 41.6677 63.227 42.9685 64.45C45.5412 66.8665 45.3248 74.1206 43.8014 77.0589Z" fill="white"/>
<path d="M43.1749 77.9368C43.135 77.9747 43.0948 78.011 43.0543 78.046C41.3653 79.5088 38.7113 78.6439 38.1318 76.486C37.6396 74.6524 37.3525 72.5269 37.1856 70.7404L37.4273 72.2492C35.8738 62.2221 41.6673 63.227 42.9691 64.4494C45.8613 67.1666 45.2272 76.0021 43.1749 77.9368Z" fill="white"/>
<path d="M33.4406 79.1546C33.3122 79.1546 33.1839 79.151 33.0559 79.1407C32.4295 79.1083 31.8063 79.014 31.2055 78.8364C30.0006 78.4932 28.8739 77.8775 27.8949 77.0673C27.4046 76.6632 26.9493 76.2124 26.5316 75.7299C26.3229 75.4882 26.1229 75.2383 25.9369 74.9804C25.8429 74.852 25.7522 74.7214 25.6663 74.5896C25.5885 74.4726 25.5066 74.3407 25.445 74.2331C24.8802 72.7674 24.5545 71.2132 24.4336 69.6317C24.8685 71.1775 25.6158 72.557 26.5873 73.8475C27.9098 75.6026 30.6057 76.8097 33.0228 76.8094C34.5861 76.8094 36.0327 76.3045 36.9155 75.1165C37.2301 74.6929 37.5318 73.6955 37.551 73.6844V73.6848C37.7026 74.6391 37.8932 75.5967 38.132 76.486C38.2626 76.973 38.4992 77.3946 38.8067 77.7378L38.5798 77.8499C37.4191 78.4225 36.1935 78.8448 34.9406 79.0415C34.8625 79.0538 34.7844 79.0703 34.706 79.0794L34.4701 79.1018C34.3129 79.1151 34.1558 79.1365 33.9986 79.1436C33.8126 79.1471 33.6262 79.1546 33.4406 79.1546Z" fill="black"/>
<path d="M40.8588 78.2767C40.827 78.2767 40.7953 78.2761 40.7635 78.2745C40.4848 78.2703 40.2003 78.2327 39.9216 78.1575C39.7823 78.1215 39.6439 78.0781 39.5091 78.0275C39.4407 78.0039 39.3759 77.9741 39.3101 77.9475C39.2498 77.9203 39.1746 77.8846 39.1393 77.8655L38.8587 77.7122L38.8065 77.7378C38.499 77.3946 38.2624 76.973 38.1318 76.486C37.893 75.5967 37.7024 74.6391 37.5508 73.6848C37.5624 73.6948 38.7748 74.7626 40.2389 75.1479C40.5629 75.8323 41.0419 76.2669 41.5776 76.2669C42.2477 76.2669 42.8294 75.589 43.1279 74.5902V74.5886C43.1438 74.5776 43.1596 74.5633 43.1755 74.5491C43.6214 74.1505 43.9928 73.4291 44.2776 72.5182C44.218 73.303 44.1059 74.0821 43.9348 74.8407C43.7928 75.4561 43.6072 76.0592 43.3563 76.603C43.227 76.8674 43.0867 77.1286 42.9208 77.3276C42.8375 77.4238 42.7623 77.5097 42.645 77.5988L42.4853 77.7323C42.4324 77.778 42.3705 77.8068 42.3142 77.8454C42.2562 77.8811 42.1998 77.9203 42.1414 77.9546L41.9574 78.0392C41.8384 78.1056 41.7043 78.1325 41.5776 78.1785C41.3449 78.2349 41.1054 78.2767 40.8588 78.2767Z" fill="black"/>
<path d="M43.5576 77.4744C43.6477 77.3386 43.7346 77.1885 43.8182 77.0255C43.7362 77.1885 43.6493 77.3386 43.5576 77.4744Z" fill="white"/>
<path d="M44.8506 69.4555C44.8775 69.7193 44.8966 69.9847 44.9092 70.252C44.895 69.9847 44.8759 69.7193 44.8506 69.4555Z" fill="white"/>
<path d="M33.0666 44.1258C32.7895 44.7509 32.4859 45.3605 32.1761 45.9619C31.8686 46.5653 31.5494 47.1597 31.2279 47.7521C30.5791 48.9339 29.942 50.12 29.3185 51.3125C28.6924 52.5041 28.101 53.7138 27.5637 54.9469C27.0268 56.1796 26.5533 57.4379 26.1233 58.7079C25.69 59.9773 25.3348 61.2699 25.0445 62.5727C24.9777 62.8997 24.8941 63.2237 24.8413 63.5526L24.6705 64.5371C24.585 65.1963 24.4861 65.8551 24.4492 66.5171C24.2298 69.1579 24.5137 71.835 25.4577 74.2671L25.4285 74.2045C25.4914 74.317 25.5811 74.4618 25.666 74.5895C25.7519 74.7214 25.8426 74.852 25.9366 74.9803C26.1226 75.2383 26.3226 75.4881 26.5313 75.7299C26.949 76.2124 27.4043 76.6632 27.8946 77.0673C28.8736 77.8774 30.0004 78.4932 31.2052 78.8363C31.806 79.0139 32.4292 79.1082 33.0556 79.1406C33.3686 79.1662 33.6836 79.1497 33.9983 79.1435C34.1555 79.1364 34.3126 79.115 34.4698 79.1017L34.7057 79.0794C34.7841 79.0703 34.8622 79.0538 34.9403 79.0415C36.1932 78.8448 37.4188 78.4225 38.5795 77.8499L38.8586 77.7122L39.1392 77.8654C39.1745 77.8846 39.2497 77.9202 39.31 77.9474C39.3758 77.974 39.4406 78.0038 39.509 78.0275C39.6438 78.078 39.7821 78.1215 39.9215 78.1574C40.2002 78.2326 40.4847 78.2702 40.7634 78.2744C41.0437 78.2871 41.315 78.242 41.5774 78.1785C41.7041 78.1325 41.8383 78.1056 41.9572 78.0391L42.1413 77.9546C42.1996 77.9202 42.256 77.881 42.314 77.8454C42.3704 77.8068 42.4323 77.778 42.4851 77.7323L42.6449 77.5987C42.7622 77.5096 42.8374 77.4238 42.9207 77.3275C43.0866 77.1285 43.2269 76.8673 43.3562 76.6029C43.607 76.0591 43.7927 75.4561 43.9347 74.8407C44.2134 73.6053 44.3352 72.3149 44.3297 71.0346C44.32 69.7555 44.1865 68.4699 43.8439 67.2709C43.6702 66.6753 43.446 66.0962 43.1316 65.6026C43.0519 65.4811 42.9748 65.3564 42.8831 65.2494C42.8377 65.1953 42.7982 65.1337 42.7489 65.0851L42.605 64.9351C42.5551 64.8774 42.5159 64.8541 42.4751 64.8158C42.4249 64.7824 42.3792 64.7452 42.3228 64.7134C42.2126 64.648 42.093 64.5851 41.9644 64.5352C41.4524 64.3275 40.8677 64.249 40.3327 64.3271C39.799 64.4143 39.3093 64.6486 38.9393 65.0449C38.7458 65.2326 38.5941 65.4704 38.4541 65.7164C38.3265 65.9721 38.213 66.2407 38.1349 66.5291C37.9703 67.1014 37.8883 67.7129 37.8316 68.3345C37.7289 69.5863 37.7691 70.8686 37.6249 72.2184L37.6245 72.22C37.6125 72.3334 37.5108 72.4151 37.3977 72.4031C37.3212 72.395 37.259 72.3454 37.2305 72.2796C36.6854 71.0135 36.5036 69.6411 36.5574 68.2473C36.5973 67.5493 36.7178 66.8432 36.9511 66.1519C37.1858 65.4656 37.5286 64.774 38.0808 64.2102C38.6171 63.6346 39.3832 63.26 40.1545 63.143C40.9316 63.0325 41.7035 63.1398 42.4181 63.4272C42.5976 63.4979 42.7735 63.5873 42.9472 63.6917C43.0341 63.7419 43.1203 63.8064 43.2058 63.8673C43.2898 63.9376 43.3847 64.0128 43.4437 64.0805L43.6437 64.2889C43.7111 64.3582 43.7636 64.4354 43.8238 64.5086C43.9463 64.6548 44.0452 64.8113 44.1463 64.9668C44.5423 65.5936 44.7967 66.2647 44.994 66.9375C45.3787 68.2878 45.5154 69.6625 45.5271 71.0284C45.5323 72.3953 45.4056 73.7593 45.1019 75.108C44.9454 75.7821 44.7438 76.4525 44.4402 77.1123C44.2788 77.4409 44.1064 77.7692 43.8501 78.0826C43.7195 78.2384 43.5688 78.3969 43.4226 78.509L43.2003 78.6928C43.1265 78.754 43.039 78.8007 42.9586 78.8545C42.876 78.906 42.7946 78.9598 42.7104 79.0081L42.4443 79.1332C42.27 79.2242 42.0781 79.2716 41.8924 79.3338C41.5142 79.429 41.1241 79.4864 40.7417 79.4718C40.359 79.4653 39.9824 79.4128 39.6214 79.3166C39.4406 79.2699 39.2627 79.2139 39.0874 79.1484C38.9995 79.1173 38.913 79.0787 38.8258 79.0424C38.7354 79.0013 38.6599 78.9679 38.5501 78.908L39.1097 78.9235C37.8637 79.5379 36.5234 80.0052 35.1218 80.2253C35.0343 80.2389 34.9475 80.2564 34.8593 80.2671L34.5939 80.2927C34.4167 80.3079 34.2404 80.3309 34.0625 80.3393C33.706 80.3478 33.3498 80.3643 32.9924 80.3364C32.2795 80.2995 31.5652 80.1906 30.8779 79.9881C29.4984 79.5959 28.2216 78.8927 27.1331 77.9915C26.587 77.5414 26.0847 77.044 25.6242 76.5115C25.3941 76.2451 25.1741 75.9703 24.9677 75.6839C24.8633 75.5413 24.7625 75.3961 24.665 75.2467C24.5649 75.0944 24.4761 74.9547 24.375 74.7739L24.3588 74.7451L24.3458 74.7117C23.3159 72.0644 23.0259 69.1965 23.255 66.4277C23.2945 65.7313 23.397 65.0443 23.4867 64.356L23.6646 63.3313C23.72 62.9891 23.8056 62.654 23.8749 62.3147C24.176 60.965 24.5428 59.6318 24.9878 58.3281C25.865 55.7152 26.9655 53.1921 28.1765 50.7286C28.7897 49.5004 29.4656 48.3042 30.1996 47.1448C30.5649 46.564 30.9618 46.0028 31.3783 45.4558C31.7979 44.9097 32.2383 44.3815 32.7419 43.8938C32.8223 43.8157 32.9506 43.818 33.0287 43.8983C33.0877 43.9592 33.101 44.048 33.0686 44.1216L33.0666 44.1258Z" fill="black"/>
<path d="M33.7177 60.9165C34.3616 61.1955 34.9213 61.6206 35.4281 62.1071C35.9291 62.5983 36.3721 63.1599 36.7308 63.7753C36.8225 63.928 36.8984 64.0887 36.9829 64.2462L37.1067 64.4844C37.1424 64.5657 37.1748 64.649 37.2085 64.7313C37.2749 64.8969 37.3439 65.0618 37.4078 65.2291L37.5588 65.742C37.5828 65.8279 37.6097 65.9135 37.6317 66L37.681 66.2618C37.7143 66.4365 37.7435 66.6122 37.7704 66.7878C37.8155 67.1394 37.8239 67.4946 37.8278 67.8472C37.8317 68.177 37.5669 68.4473 37.237 68.4512C36.9483 68.4541 36.7049 68.2522 36.6462 67.9803L36.6323 67.9155C36.5646 67.6025 36.5318 67.2881 36.4803 66.978C36.409 66.6728 36.3828 66.3568 36.2982 66.0561L36.1942 65.5978L36.0652 65.1467C36.0441 65.0712 36.0211 64.9964 36.0017 64.9199L35.9239 64.6982C35.8698 64.5511 35.8244 64.3988 35.7635 64.254C35.5299 63.6684 35.2343 63.1029 34.8811 62.5646C34.5295 62.027 34.1144 61.5111 33.6315 61.0642L33.625 61.0584C33.5903 61.026 33.5884 60.9715 33.6205 60.9369C33.6461 60.9093 33.6853 60.9022 33.7177 60.9165Z" fill="black"/>
<path d="M66.3446 67.003C66.32 67.003 66.295 67.0017 66.2701 66.9985C65.9418 66.9576 65.7088 66.6585 65.7496 66.3306C66.9924 56.3177 63.1863 43.7292 63.1474 43.6032C63.0508 43.2869 63.2284 42.9521 63.5447 42.8552C63.8607 42.758 64.1957 42.9359 64.2923 43.2522C64.453 43.7765 68.2125 56.2075 66.9379 66.478C66.9004 66.781 66.6424 67.003 66.3446 67.003Z" fill="black"/>
<path d="M68.1628 77.5084C65.6873 78.4251 64.0018 76.2299 64.0018 76.2299C63.984 76.2361 63.9649 76.2439 63.9457 76.2504C58.1444 78.3282 43.7502 77.1529 43.7502 77.1529L64.8573 70.1075L65.0978 70.0271C67.5872 60.1902 72.5256 63.3803 73.2466 65.0145C74.8475 68.6459 70.8081 76.5304 68.1628 77.5084Z" fill="white"/>
<path d="M45.2438 76.6545C45.0228 76.6412 44.8238 76.6286 44.6492 76.6169C44.8417 76.1178 44.9846 75.6139 45.1019 75.1081C45.1942 74.6981 45.2701 74.2872 45.331 73.875C45.5193 74.634 45.7876 75.5089 46.1606 76.3486L45.2438 76.6545Z" fill="black"/>
<path d="M54.7018 73.2657C54.452 73.2495 54.1995 73.2337 53.9468 73.2184L53.9633 73.199C54.2073 73.1802 54.4504 73.1611 54.6934 73.142C54.696 73.1831 54.6989 73.2246 54.7018 73.2657Z" fill="black"/>
<path d="M53.6443 73.8504C53.6508 73.7516 53.6569 73.6524 53.6621 73.5536L53.9466 73.2185C54.1994 73.2337 54.4519 73.2496 54.7017 73.2658C54.7069 73.341 54.7124 73.4162 54.7186 73.492L53.6443 73.8504Z" fill="black"/>
<path d="M53.6621 73.5535C53.6637 73.5244 53.6654 73.4952 53.6666 73.466C53.6718 73.3844 53.676 73.3024 53.6803 73.221C53.7742 73.2136 53.8692 73.2065 53.9632 73.199L53.9466 73.2184L53.6621 73.5535Z" fill="black"/>
<path d="M44.6495 76.6169C44.2609 76.5913 43.9923 76.5712 43.8711 76.5618L44.4541 73.6909C44.598 73.6939 44.7532 73.6955 44.9175 73.6955C45.0358 73.6955 45.1589 73.6948 45.2869 73.6932C45.3012 73.7528 45.3161 73.8134 45.3313 73.875C45.2704 74.2872 45.1946 74.6981 45.1022 75.1081C44.9849 75.6139 44.842 76.1178 44.6495 76.6169Z" fill="black"/>
<path d="M53.1753 76.88C53.4294 75.9574 53.5736 74.9019 53.6442 73.8504L54.7185 73.4919C54.7966 74.4683 54.9388 75.4655 55.1722 76.355C55.2101 76.5196 55.2506 76.6814 55.2943 76.8392C54.5859 76.8622 53.8766 76.8751 53.1753 76.88ZM46.3318 76.7154C45.928 76.6946 45.5631 76.6739 45.2439 76.6545L46.1607 76.3485C46.195 76.4257 46.2297 76.5021 46.266 76.5786C46.2877 76.6243 46.3094 76.67 46.3318 76.7154ZM62.4088 76.0734C62.6389 75.5189 62.8245 74.9561 62.9736 74.4278C63.3197 73.6449 63.5909 72.909 63.7909 72.3441C64.2514 72.3 64.5097 72.2748 64.5097 72.2748V72.2764C64.4662 72.4543 64.4238 72.6325 64.3836 72.8114C64.2977 73.1909 64.2206 73.573 64.1613 73.9576C64.1467 74.0519 64.1331 74.1462 64.1208 74.2408C64.1201 74.2457 64.1195 74.2506 64.1188 74.2554C64.1175 74.2648 64.1166 74.2739 64.1156 74.2833C64.1153 74.2849 64.115 74.2865 64.115 74.2882C64.1143 74.2943 64.1137 74.3002 64.1127 74.3063C64.1127 74.307 64.1127 74.3076 64.1127 74.3079C64.1124 74.3099 64.1124 74.3115 64.112 74.3134C64.066 74.7431 64.1101 75.1573 64.2268 75.5394L64.2096 75.5173L63.7971 75.668C63.38 75.8203 62.914 75.9548 62.4088 76.0734Z" fill="black"/>
<path d="M68.163 77.5084C68.1115 77.5275 68.06 77.5453 68.0091 77.5618C65.9047 78.242 63.8352 76.4334 64.1213 74.2405C64.2879 72.9611 64.6709 71.7125 64.9509 70.4824C64.9866 70.3265 65.0349 70.1739 65.0981 70.0271C67.5875 60.1902 72.5259 63.3803 73.2469 65.0145C74.8478 68.6459 70.8083 76.5303 68.163 77.5084Z" fill="white"/>
<path d="M64.2273 75.5403L64.2266 75.5397C64.11 75.1573 64.0659 74.7432 64.1119 74.3134C64.1123 74.3115 64.1122 74.3099 64.1126 74.3079C64.1126 74.3076 64.1126 74.307 64.1126 74.3063C64.1135 74.3002 64.1142 74.2943 64.1148 74.2882C64.1148 74.2866 64.1152 74.2849 64.1155 74.2833C64.1165 74.2739 64.1174 74.2648 64.1187 74.2554C64.1194 74.2506 64.12 74.2457 64.1207 74.2409C64.133 74.1462 64.1466 74.0519 64.1612 73.9576C64.1466 74.0519 64.1333 74.1459 64.121 74.2405C64.0614 74.6968 64.1038 75.1366 64.2273 75.5403Z" fill="black"/>
<path d="M64.2266 75.5397V75.5394C64.11 75.1573 64.0659 74.7432 64.1119 74.3135C64.0659 74.7432 64.11 75.1573 64.2266 75.5397Z" fill="black"/>
<path d="M64.3833 72.8115C64.4235 72.6326 64.4659 72.4543 64.5094 72.2764C64.5094 72.2764 64.5094 72.2764 64.5094 72.2768C64.4659 72.4543 64.4235 72.6326 64.3833 72.8115Z" fill="black"/>
<path d="M66.9569 77.1321C65.487 77.1321 64.5249 75.9263 64.4775 75.8657L64.2277 75.5404C64.1042 75.1366 64.0618 74.6968 64.1214 74.2405C64.1337 74.1459 64.147 74.0519 64.1616 73.9576C64.2212 73.573 64.298 73.1909 64.3839 72.8114C64.4241 72.6326 64.4665 72.4543 64.5099 72.2767C64.5265 72.3409 65.0168 74.0928 66.3937 74.7892C66.5185 75.1479 66.7288 75.4182 67.0243 75.5543C67.1643 75.6191 67.3153 75.6502 67.4732 75.6502C68.0448 75.6502 68.7065 75.2429 69.2762 74.5617C69.5929 74.3404 69.9163 74.0416 70.2384 73.6812C70.239 73.6806 70.24 73.6796 70.2407 73.6786C70.2413 73.6783 70.2413 73.678 70.2419 73.6776C71.033 72.792 71.8143 71.5385 72.4566 70.1658C72.302 70.6564 72.1153 71.1616 71.8976 71.6756C70.8058 74.2535 69.111 76.52 67.9557 76.9474C67.6025 77.078 67.2684 77.1321 66.9569 77.1321Z" fill="black"/>
<path d="M73.6097 66.9961C72.7072 70.5031 70.351 74.4275 68.5239 74.9363C65.4878 75.7818 64.5334 72.3632 64.5098 72.2764V72.2748C64.6582 71.6727 64.8163 71.0754 64.9505 70.4827C64.9868 70.3262 65.0344 70.1745 65.0976 70.0274C66.4473 64.6966 68.5161 63.1904 70.2418 63.1904C71.7007 63.1904 72.9159 64.2653 73.2461 65.0142C73.4976 65.5848 73.6097 66.2599 73.6097 66.9961Z" fill="white"/>
<path d="M66.9717 78.3273C65.5835 78.3273 64.4522 77.5771 63.817 76.9267C57.7807 78.8701 44.2848 77.7974 43.7009 77.7498C43.3713 77.7229 43.126 77.4338 43.1529 77.1043C43.1798 76.7747 43.4682 76.5287 43.7984 76.5563C43.942 76.5679 58.2214 77.7031 63.7969 75.668L64.2094 75.5173L64.4771 75.8657C64.5345 75.9389 65.9354 77.6947 67.9553 76.9474C69.1105 76.52 70.8054 74.2535 71.8971 71.6756C73.0113 69.0452 73.3107 66.6455 72.6985 65.2563C72.4422 64.6746 71.3368 63.6894 70.0451 63.798C68.2307 63.95 66.6798 66.2145 65.6778 70.1739C65.5964 70.4944 65.2717 70.6891 64.9502 70.6075C64.6297 70.5265 64.4356 70.2008 64.5166 69.8803C65.9743 64.1207 68.2732 62.7448 69.945 62.6048C71.7656 62.4515 73.3502 63.7662 73.7942 64.7734C74.8652 67.2032 73.5955 70.7365 72.9999 72.1426C71.9461 74.6307 70.106 77.4287 68.371 78.0706C67.8836 78.2508 67.4144 78.3273 66.9717 78.3273Z" fill="black"/>
<path d="M44.9297 71.7271C44.9297 71.7271 45.8478 80.4217 50.8072 79.7574C54.3258 79.2859 53.809 70.274 53.4266 68.4366L44.9297 71.7271Z" fill="white"/>
<path d="M65.9473 62.4003C65.5363 67.1637 64.5599 70.2154 64.0589 71.5842C63.4899 73.1439 61.4652 79.8118 57.5349 79.3837C54.7817 79.0849 54.4956 72.828 54.6852 69.9516L57.846 65.5739L66.0218 54.2531C66.2097 57.3745 66.1449 60.0881 65.9473 62.4003Z" fill="white"/>
<path d="M55.1722 76.355C54.8495 75.1239 54.7011 73.688 54.6554 72.3846C54.644 72.0661 54.6392 71.7553 54.6392 71.4578C54.6392 70.8998 54.657 70.3871 54.6855 69.9516L55.1803 69.6619C57.1493 69.0688 58.3283 67.2301 58.9223 65.9809C59.0584 65.7579 59.1919 65.5294 59.3244 65.2955L59.6375 64.7426C59.6375 64.7426 59.8394 66.3467 58.8043 68.0678C57.7832 69.7646 57.8911 71.0025 59.3212 71.0025C59.5399 71.0025 59.7901 70.9734 60.0717 70.9124C63.1756 70.241 65.1543 64.9763 65.9476 62.4003C65.7626 64.5453 65.4628 66.3435 65.1436 67.7969C64.9359 68.7412 64.7204 69.5397 64.5224 70.194C64.3484 70.7689 64.188 71.2323 64.0593 71.5842C63.8678 72.1089 63.5116 73.2116 62.9737 74.4278C63.1318 73.8669 63.2485 73.3445 63.3324 72.9119C62.0491 73.3021 61.1463 73.4874 59.666 73.4874C59.2755 73.4874 58.8455 73.4745 58.3571 73.4492C56.9802 73.3776 55.5015 73.0441 54.7526 72.7424C54.7886 73.9343 54.911 75.2166 55.1722 76.355Z" fill="black"/>
<path d="M52.2488 78.8834C52.4319 78.653 52.5933 78.3853 52.7358 78.0871H52.7362C52.5936 78.385 52.4319 78.653 52.2488 78.8834Z" fill="black"/>
<path d="M53.6927 72.745C53.7218 71.4322 53.6521 70.2037 53.5585 69.342C53.5588 69.342 53.5588 69.3417 53.5588 69.3417C53.6525 70.2034 53.7221 71.4316 53.693 72.745C53.6927 72.745 53.6927 72.745 53.6927 72.745ZM45.524 71.497C45.527 71.3408 45.5279 71.1846 45.5273 71.0284C45.5237 70.6101 45.5085 70.1911 45.478 69.7721C45.8329 70.2413 46.2409 70.6742 46.7088 71.0382L45.524 71.497Z" fill="black"/>
<path d="M45.2215 71.614C44.9467 70.308 44.7876 69.1848 44.7114 68.5704C44.9341 68.9833 45.1884 69.3897 45.4778 69.772C45.5083 70.1911 45.5235 70.6101 45.5271 71.0284C45.5277 71.1846 45.5268 71.3408 45.5239 71.497L45.2215 71.614Z" fill="white"/>
<path d="M53.6438 73.8507C53.6503 73.7515 53.6564 73.6527 53.6616 73.5539L53.6619 73.5535C53.6568 73.6524 53.6506 73.7515 53.6441 73.8504L53.6438 73.8507Z" fill="black"/>
<path d="M53.6619 73.5539C53.6628 73.5367 53.6638 73.5199 53.6648 73.5027C53.6654 73.4907 53.6661 73.4784 53.6667 73.4661C53.6654 73.4952 53.6638 73.5244 53.6622 73.5536L53.6619 73.5539Z" fill="black"/>
<path d="M53.175 76.88C53.4294 75.9571 53.5733 74.9019 53.644 73.8507L53.6443 73.8504C53.5736 74.9019 53.4294 75.9574 53.1754 76.88H53.175Z" fill="black"/>
<path d="M52.7361 78.0872C52.9098 77.7242 53.0546 77.3169 53.1752 76.88H53.1755C53.055 77.3169 52.9098 77.7242 52.7364 78.0872H52.7361Z" fill="white"/>
<path d="M50.8072 79.7567C52.7697 79.4939 53.4882 76.3835 53.6648 73.5026C53.6638 73.5198 53.6628 73.5366 53.6619 73.5538C53.6567 73.6527 53.6505 73.7515 53.644 73.8507C53.5734 74.9019 53.4295 75.9571 53.1751 76.88C53.0546 77.3168 52.9097 77.7242 52.736 78.0871C52.5934 78.3852 52.432 78.6529 52.2489 78.8833C51.8675 79.3629 51.3934 79.6783 50.8072 79.7567ZM48.786 73.4874C47.4784 73.4874 46.6213 73.3429 45.5548 73.0402C45.4288 72.5515 45.3182 72.0716 45.2217 71.614L45.524 71.497L46.7088 71.0381C47.5714 71.7093 48.6386 72.1467 49.9536 72.1467C50.1698 72.1467 50.3924 72.1351 50.6225 72.1105C52.1064 71.9523 53.0196 70.8307 53.5585 69.342C53.6521 70.2037 53.7218 71.4322 53.6926 72.745C52.9415 73.0463 51.4673 73.3775 50.0946 73.4491C49.6066 73.4744 49.1762 73.4874 48.786 73.4874Z" fill="black"/>
<path d="M53.8572 69.8537L53.4194 67.9391C54.7993 67.8585 55.9251 67.4777 56.8124 67.0062L54.8298 69.7519C54.5235 69.8177 54.1995 69.8537 53.8572 69.8537Z" fill="black"/>
<path d="M54.8298 69.752L56.8124 67.0062C58.5854 66.0639 59.4069 64.7586 59.4069 64.7586C59.4069 64.7586 59.2578 65.2758 58.9224 65.9809C58.0779 67.3624 57.1303 68.5196 55.6912 69.3625L55.1805 69.6619C55.0661 69.6963 54.9494 69.7264 54.8298 69.752Z" fill="black"/>
<path d="M55.1804 69.6619L55.6911 69.3624C57.1303 68.5196 58.0779 67.3623 58.9224 65.9809C58.3284 67.2301 57.1494 69.0688 55.1804 69.6619Z" fill="black"/>
<path d="M59.5285 64.7676C59.4051 65.4857 59.1763 66.1753 58.8853 66.8487C58.5865 67.5173 58.22 68.169 57.7443 68.7613C57.2734 69.3534 56.6936 69.8998 55.9852 70.2825C55.631 70.4717 55.2487 70.6179 54.853 70.7109C54.456 70.8026 54.0464 70.8295 53.6462 70.8042C53.316 70.7832 53.0651 70.4983 53.0862 70.1681C53.1047 69.8777 53.327 69.6489 53.6047 69.612L53.6462 69.6065C53.9527 69.5657 54.2502 69.5229 54.5412 69.4445C54.8303 69.3609 55.1138 69.2588 55.3909 69.1279C55.6647 68.9901 55.934 68.832 56.1952 68.6502C56.4545 68.4661 56.7076 68.2607 56.9467 68.0341C57.428 67.5831 57.8632 67.0577 58.2644 66.4981C58.6656 65.9381 59.0337 65.3383 59.3652 64.7161L59.3671 64.7125C59.3895 64.6704 59.442 64.6545 59.4838 64.6769C59.5175 64.6947 59.5344 64.732 59.5285 64.7676Z" fill="white"/>
<path d="M31.6243 44.1741C31.6243 44.1741 32.4921 46.4085 34.9274 48.934C37.9503 52.0686 50.9124 61.5477 58.905 59.9569C58.905 59.9569 60.6025 58.7624 61.5578 57.0319C63.5809 53.3671 65.2686 47.3811 63.7536 44.0098L31.6243 44.1741Z" fill="black"/>
<path d="M57.8819 61.9767C50.0477 61.9767 39.5711 56.3115 34.2964 52.706L33.5886 48.2855C33.8719 48.6225 34.1826 48.9702 34.5235 49.3234C36.2252 51.0886 40.3981 54.2764 44.7801 56.7082C48.2138 58.6143 52.903 60.6957 57.0014 60.6957C57.692 60.6957 58.3664 60.6364 59.0145 60.5071L59.1308 60.4841L59.228 60.4157C59.3016 60.3642 61.0431 59.126 62.049 57.3031C63.0746 55.4453 64.1839 52.6473 64.6638 49.8685C64.9471 51.2882 65.2254 52.8774 65.4542 54.5619C65.3181 54.9265 65.1726 55.2871 65.0193 55.6413L60.9864 61.2256C60.4987 61.5914 60.1506 61.7982 60.1506 61.7982C59.4267 61.9197 58.6668 61.9767 57.8819 61.9767Z" fill="black"/>
<path d="M34.2964 52.7061C33.9548 52.4737 33.6356 52.2491 33.3401 52.0359C33.0637 51.8353 32.8076 51.6441 32.5737 51.4639C32.2451 51.2108 31.9605 50.9785 31.7282 50.7747C31.1977 50.3099 30.7298 49.8559 30.3198 49.4236C30.6196 48.8656 30.9226 48.3082 31.2278 47.7521C31.5088 47.2346 31.7881 46.7155 32.0594 46.1898C32.4369 46.7939 32.9392 47.512 33.5886 48.2855L34.2964 52.7061Z" fill="black"/>
<path d="M30.3197 49.4236C30.1593 49.2547 30.0077 49.0888 29.8647 48.9271C30.5064 47.7751 31.1023 46.7841 31.5936 46.0002L31.9413 45.9986C31.9792 46.0608 32.0185 46.1246 32.0593 46.1898C31.7881 46.7154 31.5087 47.2345 31.2277 47.7521C30.9225 48.3082 30.6195 48.8656 30.3197 49.4236Z" fill="black"/>
<path d="M65.4544 54.5619C65.2257 52.8774 64.9473 51.2882 64.6641 49.8685C64.6835 49.7567 64.702 49.6443 64.7192 49.5325C64.8326 49.5176 64.945 49.5023 65.0562 49.4864C65.367 50.7211 65.6356 51.8819 65.807 52.8087C65.8372 52.9698 65.8641 53.1279 65.8861 53.2812C65.8466 53.4124 65.8057 53.545 65.763 53.6762C65.6667 53.9734 65.5637 54.2689 65.4544 54.5619Z" fill="black"/>
<path d="M60.9866 61.2256L65.0195 55.6414C64.5111 56.8171 63.9158 57.9225 63.2942 58.873C62.6331 59.8837 61.672 60.7117 60.9866 61.2256Z" fill="black"/>
<path d="M63.6403 51.8352C63.1221 53.7284 62.3664 55.5648 61.5572 57.0315C60.6029 58.762 58.9054 59.9569 58.9054 59.9569C51.8046 61.3714 40.7778 54.0447 36.2879 50.1945C35.7253 49.711 35.2639 49.2826 34.9272 48.9336C32.4915 46.4078 31.624 44.1747 31.624 44.1747L63.7541 44.0104C64.6631 46.0332 64.4181 48.9968 63.6403 51.8352Z" fill="white"/>
<path d="M53.4335 55.7C53.7586 53.6144 55.5263 53.3195 56.3851 55.3024C56.5066 55.5827 56.4152 55.9194 56.155 56.0795C55.6096 56.4146 54.5367 56.5679 53.9008 56.4065C53.5868 56.3268 53.3836 56.0202 53.4335 55.7Z" fill="#FF8800"/>
<path d="M53.5865 53.674C53.6464 54.1098 53.3794 54.5068 52.9899 54.5603C52.6007 54.6138 52.2361 54.304 52.1761 53.8681C52.1162 53.4322 52.3832 53.0353 52.7727 52.9818C53.1623 52.9283 53.5265 53.2381 53.5865 53.674Z" fill="#FF8800"/>
<path d="M55.1713 52.323C55.2313 52.7588 54.9643 53.1558 54.5751 53.2093C54.1855 53.2627 53.8213 52.9529 53.7613 52.5171C53.7014 52.0812 53.9684 51.6842 54.3576 51.6308C54.7471 51.577 55.1114 51.8871 55.1713 52.323Z" fill="#FF8800"/>
<path d="M57.0624 53.1422C57.1227 53.578 56.8557 53.975 56.4662 54.0285C56.0766 54.0823 55.7124 53.7721 55.6525 53.3363C55.5925 52.9004 55.8595 52.5034 56.249 52.45C56.6382 52.3965 57.0025 52.7063 57.0624 53.1422Z" fill="#FF8800"/>
<path d="M57.0007 59.5735C50.2434 59.5735 40.7957 53.3026 36.7012 49.8096C36.8337 49.8478 36.9685 49.8867 37.1033 49.9249C42.4458 53.8001 50.3989 58.417 56.5162 58.417C56.5901 58.417 56.6634 58.4163 56.7369 58.415C57.8523 58.3943 58.8978 57.8651 59.5955 56.9943C60.1308 56.3265 60.7702 55.4544 61.2683 54.5503C61.7433 53.6909 62.2012 52.7154 62.6115 51.6768C62.7965 51.6208 62.9787 51.5624 63.1588 51.5012C62.6646 53.3662 61.9167 55.2211 61.0667 56.7607C60.3107 58.1302 59.0274 59.1617 58.6741 59.4293C58.1394 59.5275 57.5801 59.5735 57.0007 59.5735Z" fill="white"/>
<path d="M55.1488 52.6746C55.1793 52.565 55.1881 52.4454 55.1712 52.323C55.1158 51.9198 54.8002 51.6246 54.4453 51.6246C54.4161 51.6246 54.387 51.6265 54.3575 51.6308C53.9683 51.6842 53.7013 52.0812 53.7612 52.5171C53.768 52.5683 53.7794 52.6179 53.7946 52.6652C48.0328 52.5352 41.8452 51.274 37.1032 49.9249C36.5562 49.5282 36.037 49.1397 35.5493 48.7641C35.4722 48.688 35.3992 48.6147 35.3315 48.5444C34.2874 47.4617 33.5395 46.4302 33.032 45.622C33.1017 45.6612 33.1713 45.6998 33.2413 45.738C33.3612 45.8045 33.4847 45.8702 33.6101 45.9341C34.4948 47.4364 36.5263 48.4958 39.7757 49.1569C42.9188 49.7966 47.2427 50.0944 53.3837 50.0944C57.4153 50.0944 60.664 49.9661 63.3094 49.6968C63.0994 50.3731 62.8644 51.0371 62.6113 51.6768C60.8436 52.2131 58.87 52.5103 56.7912 52.623C56.6642 52.5103 56.5047 52.4442 56.3365 52.4442C56.3077 52.4442 56.2782 52.4461 56.249 52.45C56.0922 52.4717 55.9554 52.5485 55.8517 52.6613C55.6187 52.6678 55.3841 52.6723 55.1488 52.6746Z" fill="white"/>
<path d="M54.7604 52.6762C54.4402 52.6762 54.1178 52.6726 53.7947 52.6652C53.7795 52.6179 53.7681 52.5683 53.7613 52.5171C53.7014 52.0812 53.9684 51.6843 54.3576 51.6308C54.3871 51.6266 54.4163 51.6246 54.4454 51.6246C54.8003 51.6246 55.1159 51.9198 55.1713 52.323C55.1882 52.4455 55.1794 52.5651 55.149 52.6746C55.02 52.6759 54.89 52.6762 54.7604 52.6762Z" fill="#FF8800"/>
<path d="M55.8518 52.6613C55.9555 52.5485 56.0923 52.4717 56.2491 52.45C56.2783 52.4461 56.3078 52.4442 56.3366 52.4442C56.5048 52.4442 56.6642 52.5103 56.7913 52.6231C56.4805 52.6399 56.1671 52.6526 55.8518 52.6613Z" fill="#FF8800"/>
<path d="M62.6113 51.6768C62.8644 51.0371 63.0994 50.3731 63.3094 49.6968C63.393 49.6884 63.4756 49.6796 63.5583 49.6709C63.4559 50.2749 63.321 50.8884 63.1587 51.5012C62.9785 51.5624 62.7964 51.6208 62.6113 51.6768ZM37.1032 49.9249C36.9684 49.8867 36.8336 49.8478 36.701 49.8096C36.2477 49.4227 35.8607 49.0707 35.5493 48.7642C36.037 49.1397 36.5562 49.5283 37.1032 49.9249Z" fill="white"/>
<path d="M57.0016 60.6957C52.9032 60.6957 48.214 58.6143 44.7803 56.7082C40.3983 54.2764 36.2254 51.0886 34.5238 49.3235C32.0382 46.7465 31.1383 44.4729 31.1013 44.3773C30.9889 44.0886 31.1321 43.7632 31.4212 43.6508C31.7099 43.5383 32.035 43.6815 32.1474 43.9706C32.1623 44.0082 33.0233 46.1506 35.3316 48.5444C38.3448 51.669 51.0405 60.8267 58.6741 59.4293C59.0273 59.1616 60.3106 58.1301 61.0666 56.7607C63.1516 52.9837 64.6226 47.3117 63.2417 44.2399C63.1147 43.957 63.2408 43.6248 63.5237 43.4978C63.8066 43.3708 64.1384 43.4968 64.2658 43.7797C65.994 47.6251 63.8873 53.9741 62.0492 57.3031C61.0433 59.126 59.3018 60.3642 59.2282 60.4158L59.131 60.4841L59.0147 60.5071C58.3666 60.6364 57.6922 60.6957 57.0016 60.6957Z" fill="black"/>
<path d="M71.819 29.8844C71.819 29.8844 71.7701 30.2463 72.5203 30.9709C72.8829 30.783 73.1172 30.5607 73.1434 30.3047C73.1561 30.1828 73.1269 30.0636 73.0644 29.9443C72.3978 29.9502 71.819 29.8844 71.819 29.8844Z" fill="white"/>
<path d="M36.9258 26.8284C37.1134 26.6845 37.2972 26.5374 37.4754 26.3851C37.3023 26.5073 37.1202 26.6547 36.9258 26.8284Z" fill="white"/>
<path d="M54.877 7.0798C57.1477 5.71842 67.5416 -0.337965 69.4205 1.40937C72.7123 4.46948 68.8583 14.8057 67.9292 17.1409L54.877 7.0798Z" fill="white"/>
<path d="M59.6322 6.27197C59.2706 6.06425 58.9031 5.8669 58.5298 5.67992C59.7502 5.01202 61.1579 4.27543 62.5504 3.62083C65.9369 2.02807 67.574 1.69072 68.3534 1.69072C68.7915 1.69072 68.9584 1.79734 69.0128 1.84789C69.3029 2.11719 69.53 2.4649 69.7012 2.87743C69.4782 2.75882 69.1859 2.7047 68.8375 2.7047C66.7908 2.7047 62.8129 4.57713 59.6322 6.27197Z" fill="white"/>
<path d="M67.9293 17.7398C67.8554 17.7398 67.7809 17.7262 67.708 17.6974C67.4008 17.5752 67.2508 17.2268 67.3729 16.9196C69.5963 11.3305 71.3598 4.02942 69.013 1.84784C68.862 1.70752 67.8409 1.13296 62.5506 3.62078C59.3699 5.11632 56.1089 7.0393 55.185 7.59312C54.9014 7.76357 54.5336 7.67122 54.3635 7.38767C54.1937 7.10411 54.2857 6.73631 54.5693 6.56617C55.5051 6.00522 58.8099 4.05664 62.0411 2.53712C67.6795 -0.114677 69.186 0.373356 69.8283 0.970924C73.3356 4.23131 69.6874 14.3414 68.4857 17.3623C68.3924 17.5969 68.1672 17.7398 67.9293 17.7398Z" fill="black"/>
<path d="M68.1451 4.49897C68.1451 4.49897 68.6545 4.34116 68.5748 5.53759C68.4377 7.58793 67.3352 12.698 64.886 14.4577C64.886 14.4577 61.601 9.06824 60.68 8.41979C59.759 7.77167 61.8275 7.20392 62.4432 6.48061C63.0592 5.75698 67.7717 4.29611 68.1451 4.49897Z" fill="#FF8800"/>
<path d="M64.6833 10.1027C64.4221 9.85054 64.1564 9.60329 63.8851 9.36154C63.1038 8.66448 62.2807 8.00825 61.4187 7.40615C61.5973 7.28106 61.7797 7.15986 61.9651 7.04255C62.586 6.64947 63.2396 6.29818 63.9124 5.98254C64.5342 5.68959 65.173 5.42743 65.822 5.19119C65.7287 6.3348 65.3674 8.27949 64.6833 10.1027Z" fill="black"/>
<path d="M68.1246 4.48502C67.4068 4.65936 66.6848 4.88459 65.982 5.13379C65.2778 5.38461 64.5852 5.66557 63.9125 5.9825C63.2397 6.29814 62.5861 6.64943 61.9652 7.04251C61.344 7.43495 60.7578 7.87308 60.2263 8.35787L60.2166 7.5555C60.3741 7.69646 60.4995 7.82187 60.633 7.95766C60.7636 8.09182 60.8913 8.2263 61.0154 8.36403C61.2643 8.63819 61.5037 8.9185 61.7338 9.20529C62.1953 9.77758 62.625 10.3709 63.0301 10.9789C63.4264 11.5927 63.8114 12.2123 64.1539 12.8549C64.3347 13.1705 64.49 13.5001 64.6575 13.8222C64.8186 14.1479 64.9667 14.4797 65.1212 14.8073C65.175 14.9211 65.1264 15.0569 65.0127 15.1107C64.9038 15.1619 64.7751 15.1197 64.7171 15.0164L64.7116 15.0066C64.5373 14.6952 64.3701 14.3802 64.1905 14.0727C64.0045 13.7687 63.8318 13.4576 63.6338 13.1618C63.2572 12.5584 62.8411 11.9815 62.4176 11.4144C61.985 10.8535 61.5319 10.31 61.0533 9.79412C60.8151 9.53519 60.5688 9.28436 60.317 9.04294C60.1916 8.92142 60.0633 8.80379 59.9346 8.68874C59.8083 8.57597 59.6699 8.45703 59.5526 8.36597L59.0652 7.98715L59.5432 7.5636V7.56328C60.1634 7.06649 60.8245 6.63808 61.5083 6.26541C62.1921 5.89209 62.8969 5.5703 63.614 5.28837C64.3309 5.00611 65.06 4.76338 65.7966 4.55339C66.5354 4.34437 67.2737 4.1642 68.0371 4.03036C68.1632 4.00833 68.2831 4.09258 68.3051 4.21864C68.3262 4.33919 68.2497 4.45455 68.1324 4.4834L68.1246 4.48502Z" fill="white"/>
<path d="M22.2402 35.9741C22.377 37.0457 24.5148 35.9984 24.9805 35.7563C25.0181 35.7375 25.0586 35.7764 25.0476 35.8234C25.0087 36.0094 24.8979 36.4278 24.613 37.0979C24.2617 37.9259 23.974 38.5685 24.1444 38.9966C24.3272 39.4532 25.1124 39.5358 26.023 39.4192C26.3062 39.3835 26.5707 39.3783 26.8396 39.4499C27.956 41.1668 29.3741 42.5907 30.9973 43.7596C41.5018 51.053 60.298 45.7202 60.298 45.7202C63.6757 44.4515 66.5297 42.6147 68.6098 40.1334V40.1318L68.6137 40.1285C68.7625 39.9227 68.9038 39.7455 69.0405 39.5958C69.7372 38.8219 70.2778 38.7312 70.9175 38.7947C71.831 38.8864 72.6123 38.7817 72.7821 38.3203C72.9419 37.8876 72.5812 37.3053 72.1696 36.5107C71.6158 35.44 71.7675 35.0602 71.7675 35.0602C71.7675 35.0602 74.4821 36.4527 74.6014 35.2459C74.6604 34.6487 73.6885 32.8618 73.3324 31.0243C72.3816 26.1113 71.7672 23.5826 71.6764 23.2187C71.6696 23.1869 71.6654 23.172 71.6654 23.172C71.4525 22.3019 71.1897 21.4658 70.8747 20.6382C70.2386 18.9495 69.3924 17.3 68.3305 15.4814C68.3305 15.4814 63.9216 7.98586 55.8039 5.17495C53.7166 4.45618 51.5538 3.80061 49.1182 3.74844C49.1026 3.74714 49.0858 3.74584 49.0689 3.74778C48.4208 3.73093 47.7588 3.74325 47.0828 3.78441C43.7398 3.97884 40.7422 4.81038 38.1066 6.12931C35.6645 5.23134 24.5119 1.29237 22.9237 3.3803C20.1416 7.03733 25.499 16.4682 26.7661 18.5875C25.9413 20.5018 25.2974 22.1917 24.8557 23.8921C24.7585 24.2605 24.673 24.6303 24.5965 25.0026C24.5906 25.0347 24.5832 25.0665 24.577 25.0999C24.5712 25.1316 24.5637 25.1663 24.5579 25.1997C24.5505 25.2347 24.5433 25.2693 24.5372 25.304C24.2854 26.5854 23.8887 28.7067 23.3929 31.7188C23.088 33.5656 22.1647 35.3784 22.2402 35.9741Z" fill="white"/>
<path d="M33.1463 44.6573C33.0322 44.5873 32.9188 44.5163 32.8063 44.4437C32.5241 44.2619 32.2493 44.0688 31.979 43.8708C31.8435 43.772 31.7107 43.6699 31.5788 43.5662L31.3824 43.4093L31.2858 43.3293L31.2375 43.2891L31.2132 43.269L31.2035 43.2609C31.1922 43.2509 31.1776 43.2385 31.1594 43.2259C31.0956 43.176 31.0019 43.0875 30.917 43.002C30.8266 42.9119 30.7349 42.8166 30.6429 42.7201L30.0878 42.1316C29.7145 41.7362 29.3324 41.3418 28.9302 40.9607C28.5277 40.58 28.1058 40.2108 27.6333 39.8787C27.3958 39.7134 27.145 39.5575 26.8627 39.4279C26.7198 39.3647 26.5724 39.3054 26.4097 39.2623C26.2577 39.2157 26.0461 39.1933 25.9365 39.1829C25.6747 39.1557 25.4174 39.1243 25.1808 39.0757C24.9488 39.0303 24.7207 38.9515 24.6306 38.8754C24.6085 38.8579 24.5972 38.844 24.5914 38.8349C24.5875 38.8303 24.5865 38.8268 24.5849 38.8229C24.5829 38.8183 24.581 38.8054 24.5765 38.7979C24.5661 38.7555 24.5638 38.6774 24.5787 38.5821C24.6079 38.3896 24.6941 38.1498 24.7881 37.9126C24.8837 37.6722 24.9909 37.4298 25.0988 37.1721C25.1225 37.1148 25.1462 37.0574 25.1688 36.9997C25.2145 37.0013 25.2612 37.0023 25.3085 37.0023C25.5208 37.0023 25.7502 36.9855 25.9884 36.955L25.9968 36.9537C26.0448 36.9479 26.0927 36.945 26.1404 36.945C26.5306 36.945 26.901 37.1404 27.1291 37.4638C28.191 38.969 29.4928 40.2368 30.9627 41.2955C31.688 41.7991 32.4518 42.2417 33.247 42.6309C33.0698 43.2787 33.0218 43.9612 33.1463 44.6573ZM31.2356 43.2923C31.2356 43.2923 31.2353 43.2923 31.2349 43.2917V43.292C31.234 43.291 31.2314 43.2881 31.2272 43.2839C31.2324 43.2888 31.2359 43.2923 31.2356 43.2923ZM31.2003 43.2583L31.1951 43.2541C31.1957 43.2544 31.1977 43.256 31.2003 43.2583ZM69.7953 38.3569C69.3906 38.1242 68.9761 37.9048 68.5513 37.6977C68.5594 37.6884 68.5675 37.6786 68.5752 37.6689V37.6676L68.5791 37.6644C68.7279 37.4586 68.8695 37.2813 69.0059 37.1316C69.5902 36.4825 70.0643 36.314 70.5796 36.314C70.6787 36.314 70.7795 36.3205 70.8829 36.3305C71.0786 36.3506 71.2679 36.361 71.4467 36.361C71.4804 36.361 71.5138 36.3607 71.5466 36.36C71.5663 36.4064 71.5861 36.4527 71.6062 36.499C71.7656 36.86 71.926 37.187 72.0518 37.5036C72.1133 37.6589 72.1629 37.8089 72.1863 37.9282C72.2041 38.003 72.2018 38.0604 72.1999 38.0866C72.1846 38.0963 72.159 38.1106 72.1231 38.1236C72.0307 38.1589 71.892 38.1855 71.7436 38.1984C71.6545 38.2065 71.5611 38.2101 71.4655 38.2101C71.4007 38.2101 71.3349 38.2085 71.2685 38.2052C71.1862 38.2017 71.1029 38.1952 71.019 38.1871L70.8485 38.1741C70.8181 38.1719 70.7876 38.1715 70.7571 38.1715C70.7432 38.1715 70.729 38.1715 70.7147 38.1715C70.6998 38.1718 70.6849 38.1719 70.67 38.1719C70.6664 38.1719 70.6632 38.1719 70.6599 38.1719C70.356 38.1806 70.0633 38.2496 69.7953 38.3569Z" fill="black"/>
<path d="M67.687 15.5793C65.8538 13.3235 61.7126 8.94284 55.8283 6.90514C53.741 6.18669 51.5779 5.53112 49.1423 5.47895C49.1322 5.47797 49.1215 5.47733 49.1105 5.47733C49.1047 5.47733 49.0988 5.47732 49.093 5.47797C48.9063 5.47343 48.7184 5.47084 48.5291 5.47084C48.0622 5.47084 47.5881 5.48543 47.1071 5.51492C43.7638 5.70935 40.7662 6.54089 38.1306 7.8595C36.1885 7.14559 28.7377 4.50838 24.9695 4.50838C23.9996 4.50838 23.2728 4.68337 22.9477 5.11081C22.8664 5.21775 22.7918 5.32988 22.7241 5.44654C22.7918 4.87684 22.9558 4.33825 23.2397 3.89461C23.2757 3.83466 23.3194 3.78119 23.3583 3.7235C23.3842 3.68883 23.405 3.66842 23.4397 3.6399C23.5054 3.58643 23.6033 3.53458 23.7193 3.49277C23.9533 3.40819 24.2482 3.36477 24.5492 3.34629C24.6766 3.33916 24.8059 3.33593 24.9365 3.33593C25.4281 3.33593 25.9382 3.38356 26.4453 3.44935C27.7341 3.6224 29.0265 3.91827 30.3078 4.25108C32.8708 4.92707 35.4082 5.76314 37.9051 6.67764L38.141 6.76417L38.3682 6.65172C39.1919 6.24502 40.0403 5.88791 40.9085 5.58685C41.7776 5.28872 42.6652 5.04405 43.5652 4.85286C44.4654 4.66425 45.3776 4.53106 46.295 4.44551C47.0333 4.37843 47.7734 4.3389 48.5113 4.3389C48.6921 4.3389 48.873 4.34149 49.0538 4.34635L49.0735 4.34538C49.0752 4.34538 49.0771 4.3457 49.0791 4.3457C49.0842 4.3457 49.0914 4.34635 49.1001 4.347L49.1623 4.34926L49.2868 4.3538L49.5357 4.3632L50.0133 4.39625C50.3312 4.42542 50.6491 4.4601 50.9661 4.50838C51.5996 4.60236 52.2302 4.73392 52.8576 4.89369C53.4847 5.05474 54.1082 5.24302 54.7313 5.44621C55.0424 5.54797 55.3564 5.65264 55.6643 5.7612C55.9647 5.87689 56.2713 5.9754 56.5668 6.10503C58.9594 7.07365 61.15 8.52609 63.0873 10.2543C64.0572 11.1192 64.9626 12.0587 65.8029 13.0519C66.2225 13.549 66.6244 14.0611 67.0061 14.5851C67.196 14.8479 67.382 15.1133 67.5587 15.3813C67.6018 15.4464 67.6452 15.5135 67.687 15.5793ZM49.0807 4.3457C49.0804 4.3457 49.0797 4.3457 49.0791 4.3457C49.0781 4.34538 49.0771 4.34538 49.0761 4.34538L49.1306 4.34311C49.1098 4.34506 49.0923 4.3457 49.0807 4.3457ZM49.0735 4.34538C49.0713 4.34538 49.0693 4.34538 49.068 4.34538C49.0654 4.34505 49.0651 4.34505 49.0667 4.34505C49.068 4.34505 49.0713 4.34505 49.0761 4.34538H49.0735Z" fill="white"/>
<path d="M45.6289 37.4573C45.8298 40.5223 49.1158 41.3007 53.0884 41.0398C57.0611 40.7793 60.2165 39.5783 60.0156 36.5134C59.8143 33.4481 56.5747 30.724 52.6017 30.9845C48.629 31.2454 45.4276 34.392 45.6289 37.4573Z" fill="white"/>
<path d="M25.7047 6.43684C25.7047 6.43684 25.1908 6.29328 25.3039 7.48713C25.498 9.53292 26.742 14.6103 29.2393 16.3013C29.2393 16.3013 32.3729 10.8224 33.2758 10.149C34.1783 9.47557 32.0949 8.9655 31.4591 8.25937C30.8233 7.55324 26.0722 6.22394 25.7047 6.43684Z" fill="#FF8800"/>
<path d="M33.4081 9.58575C33.0737 9.15702 31.9071 8.75681 31.4589 8.25938C31.2683 8.04776 30.7093 7.78074 30.009 7.51565C30.7093 7.78009 31.2687 8.04711 31.4589 8.25905C31.9071 8.75648 33.074 9.15702 33.4081 9.58575Z" fill="black"/>
<path d="M30.4874 14.1829C28.9678 11.9446 28.1807 8.51606 28.031 6.92395C28.0294 6.90613 28.0274 6.8883 28.0261 6.8721C28.6937 7.06005 29.404 7.2869 30.0091 7.51569C30.7094 7.78077 31.2684 8.0478 31.4589 8.25941C31.9071 8.75684 33.0737 9.15706 33.4081 9.58579C33.5481 9.76532 33.5416 9.95004 33.2749 10.1487C32.749 10.5421 31.4667 12.5629 30.4874 14.1829Z" fill="black"/>
<path d="M25.7993 5.96571C26.5663 6.07848 27.3091 6.23792 28.0535 6.4262C28.7959 6.61578 29.5315 6.83776 30.2558 7.10057C30.9804 7.36209 31.694 7.66411 32.3878 8.01831C33.0816 8.37187 33.7544 8.7818 34.3882 9.26109V9.26141L34.8779 9.67167L34.4009 10.0638C34.2865 10.1581 34.1513 10.2809 34.0282 10.3969C33.9028 10.5155 33.7777 10.6367 33.6558 10.7618C33.4105 11.01 33.1717 11.2677 32.9406 11.5328C32.4766 12.0623 32.0388 12.6177 31.622 13.1907C31.2144 13.7694 30.8145 14.3576 30.4548 14.971C30.2652 15.2724 30.1009 15.5881 29.9236 15.8972C29.7525 16.2096 29.5944 16.5291 29.4288 16.8454L29.4239 16.8545C29.3656 16.966 29.2279 17.0091 29.1164 16.9507C29.0101 16.895 28.9663 16.766 29.0137 16.6575C29.1592 16.3256 29.2979 15.9896 29.4498 15.66C29.6086 15.3333 29.7545 14.9992 29.9262 14.6787C30.2509 14.0271 30.6184 13.3971 30.9976 12.7723C31.3855 12.1533 31.7986 11.5483 32.2442 10.9634C32.4659 10.6701 32.6976 10.3833 32.939 10.1024C33.0589 9.96138 33.183 9.82334 33.3101 9.68561C33.4397 9.54626 33.5612 9.41728 33.7148 9.27178L33.7275 10.0745C33.1827 9.60459 32.5848 9.18299 31.9526 8.80805C31.321 8.43214 30.6579 8.09933 29.9764 7.80216C29.2953 7.50435 28.5953 7.24251 27.8843 7.01145C27.1749 6.78202 26.4471 6.57689 25.7244 6.42264L25.7173 6.42134C25.5922 6.39476 25.5125 6.27163 25.5394 6.14654C25.5647 6.02664 25.6797 5.94853 25.7993 5.96571Z" fill="white"/>
<path d="M38.247 47.4306C37.5561 47.3039 36.8681 47.1481 36.1915 46.9462C35.5155 46.7423 34.8489 46.5006 34.1998 46.2138C33.8771 46.0725 33.5478 45.9079 33.2412 45.7381C32.9305 45.5683 32.6242 45.3894 32.3238 45.2008C32.0237 45.0115 31.7285 44.8139 31.4421 44.6039C31.2982 44.4998 31.1569 44.3919 31.0166 44.2827L30.8079 44.1171L30.7045 44.0325L30.653 43.9901L30.6274 43.9687L30.6144 43.9583L30.6079 43.9528C30.6034 43.9502 30.559 43.9071 30.5655 43.9123C30.5622 43.9091 30.5674 43.9146 30.5778 43.925C30.5985 43.9447 30.6452 43.9904 30.7314 44.0241L30.6241 43.9655C30.4734 43.8498 30.3769 43.7522 30.2732 43.6511C30.1717 43.551 30.0758 43.4518 29.9809 43.353L29.4212 42.7645C29.0511 42.3756 28.6791 41.9952 28.2954 41.6342C27.9117 41.2738 27.5154 40.9322 27.1022 40.6445C26.8958 40.5016 26.6842 40.3736 26.4745 40.2786C26.3702 40.2336 26.2658 40.1921 26.167 40.1668C26.0591 40.1373 26.0004 40.1325 25.8416 40.1163C25.5659 40.0884 25.2859 40.0566 24.9926 39.998C24.8455 39.9682 24.6951 39.9312 24.5379 39.8765C24.3811 39.8197 24.2142 39.7481 24.0444 39.6162C23.9605 39.5498 23.8765 39.4659 23.8072 39.3628C23.7719 39.3119 23.7414 39.2556 23.7164 39.1972C23.6915 39.1399 23.6769 39.087 23.6594 39.0307C23.6053 38.8096 23.6169 38.6123 23.6416 38.4412C23.696 38.0987 23.8026 37.8284 23.9037 37.563C24.0068 37.3011 24.1176 37.0487 24.2171 36.8076C24.3156 36.5675 24.4064 36.3257 24.4812 36.0859C24.5185 35.9667 24.5519 35.8464 24.5765 35.735L24.5788 35.7246C24.5801 35.7184 24.5788 35.7233 24.5758 35.7398C24.5736 35.7525 24.5723 35.7641 24.5713 35.7771C24.5674 35.828 24.5726 35.8834 24.5904 35.9375C24.6261 36.0428 24.7077 36.1591 24.874 36.2126C24.955 36.2385 25.0545 36.2369 25.1319 36.2113C25.2395 36.1695 25.1822 36.1896 25.1851 36.1909L25.1374 36.2155L24.9466 36.3102C24.6915 36.4336 24.4316 36.5474 24.1607 36.6485C23.8888 36.7486 23.6088 36.8384 23.2958 36.8938C23.1383 36.92 22.9721 36.9388 22.7828 36.9291C22.5978 36.9168 22.3677 36.8805 22.1396 36.7149C22.0281 36.6329 21.9302 36.5176 21.8693 36.3967C21.8067 36.2758 21.7753 36.1546 21.7604 36.0457C21.7332 35.7868 21.774 35.6303 21.8038 35.4747C21.8719 35.1708 21.9594 34.9092 22.0456 34.6468C22.3959 33.612 22.7472 32.6214 22.9092 31.6071L23.4442 28.4044L23.7271 26.8032L23.8768 26.0014C23.9293 25.7296 23.978 25.4758 24.0447 25.1825L24.0369 25.2182L24.0677 25.0808L24.0936 24.9703L24.1465 24.7515L24.256 24.3163C24.3299 24.0269 24.4073 23.7385 24.4874 23.4508C24.6471 22.8756 24.8182 22.3029 25 21.7332C25.3672 20.5945 25.7807 19.4661 26.295 18.364L26.3183 18.8549C25.6222 17.6915 24.9767 16.5045 24.3756 15.2906C23.7764 14.0766 23.2239 12.8358 22.7524 11.5558C22.2841 10.2757 21.8871 8.95583 21.6891 7.56917C21.5929 6.87632 21.5507 6.16372 21.6207 5.43717C21.6898 4.71516 21.8874 3.96301 22.3081 3.29901C22.3586 3.2154 22.4189 3.13731 22.4746 3.05694C22.5482 2.95713 22.6457 2.85699 22.741 2.78019C22.9361 2.62237 23.1419 2.5232 23.3399 2.44997C23.7372 2.3077 24.1134 2.26104 24.4793 2.23512C25.2094 2.1917 25.9039 2.2523 26.5892 2.3372C27.9571 2.51576 29.2815 2.81583 30.593 3.15026C33.2127 3.8308 35.7722 4.66331 38.3079 5.58072L37.8449 5.60665C38.7124 5.1737 39.6061 4.79358 40.5206 4.47243C41.4361 4.15421 42.3707 3.89269 43.3173 3.68756C44.2642 3.48502 45.2228 3.34146 46.1852 3.25299C47.1461 3.16582 48.1134 3.12305 49.0843 3.1493L49.0072 3.15221C49.0668 3.14638 49.1167 3.14832 49.1439 3.14994C49.1634 3.15156 49.1711 3.15286 49.1621 3.15124L49.2246 3.1535L49.349 3.15804L49.5979 3.16712L50.1145 3.20309C50.458 3.2342 50.8008 3.27212 51.1411 3.32397C51.8216 3.42508 52.4934 3.56539 53.1538 3.73357C53.8136 3.90306 54.4627 4.09912 55.1027 4.30782C55.4232 4.41281 55.7395 4.51845 56.0581 4.63058C56.3779 4.75275 56.7046 4.85904 57.0179 4.99612C59.5573 6.02469 61.8607 7.55556 63.8851 9.36155C64.8988 10.2657 65.8418 11.2447 66.7181 12.2797C67.1552 12.7982 67.5746 13.3319 67.9751 13.8816C68.1744 14.1577 68.3695 14.4364 68.5584 14.7231C68.6544 14.868 68.7435 15.0077 68.8404 15.1678L69.0944 15.6065C70.4322 17.9336 71.6182 20.3962 72.2612 23.0907L71.0936 23.3565L71.0825 23.3095L72.2459 23.0256C72.6063 24.5007 72.9213 25.9587 73.2314 27.4286L73.6822 29.6319L73.9009 30.7347C73.9378 30.9246 73.9706 31.0856 74.0117 31.2587C74.0519 31.4295 74.0989 31.6006 74.1485 31.7717C74.3471 32.4587 74.6109 33.1353 74.876 33.8476C74.9421 34.0268 75.0079 34.2093 75.0701 34.4037C75.1297 34.605 75.1959 34.7936 75.2231 35.0956C75.2247 35.1384 75.2283 35.1724 75.2257 35.2252C75.2244 35.2751 75.2205 35.3231 75.214 35.3639C75.2017 35.4504 75.1813 35.5428 75.1427 35.6397C75.0714 35.8325 74.9146 36.0328 74.7354 36.1465C74.5574 36.2632 74.3812 36.3134 74.2314 36.3384C74.0795 36.364 73.9459 36.3656 73.8205 36.3604C73.3267 36.3309 72.9371 36.2055 72.5512 36.0733C72.36 36.0055 72.1743 35.9317 71.9915 35.8529L71.719 35.7311L71.6023 35.6756C71.7242 35.7353 71.9193 35.7447 72.0602 35.6812C72.2025 35.6215 72.2929 35.5217 72.3461 35.4242C72.3995 35.3253 72.419 35.2187 72.4128 35.1218C72.4109 35.0972 72.4083 35.0745 72.4037 35.0518C72.3969 35.0191 72.3976 35.0246 72.3989 35.0285L72.4021 35.0421C72.4799 35.3412 72.6095 35.6776 72.7498 35.9987C72.8915 36.3218 73.0613 36.6666 73.2116 37.0455C73.2868 37.2379 73.3604 37.4424 73.41 37.6907C73.4346 37.8135 73.4514 37.9522 73.4466 38.1087C73.443 38.2652 73.4132 38.4357 73.3309 38.6227C73.2434 38.8116 73.1053 38.9645 72.9676 39.0689C72.8296 39.1729 72.6909 39.241 72.5622 39.2889C72.3033 39.3839 72.0696 39.4192 71.846 39.4377C71.6224 39.4545 71.4092 39.4516 71.2005 39.439C71.0958 39.4328 70.9931 39.4234 70.8907 39.4121L70.8278 39.4059L70.7821 39.4017C70.7513 39.3985 70.7209 39.4007 70.6901 39.3991C70.4464 39.403 70.1923 39.4847 69.9448 39.6392C69.6981 39.7916 69.4616 40.0093 69.261 40.2543C69.2117 40.3146 69.1622 40.3794 69.1236 40.4358L69.0828 40.4961C69.0607 40.5291 69.0455 40.5482 69.027 40.5735L68.9269 40.7015C68.7969 40.861 68.6709 41.0042 68.5425 41.1481L68.3484 41.3623C68.3225 41.3908 68.3176 41.394 68.3089 41.4031L68.2826 41.4284L68.2305 41.4789L68.1261 41.5804C67.9861 41.7145 67.85 41.8529 67.7035 41.9796C67.558 42.1076 67.4174 42.2408 67.268 42.364L66.8202 42.7331C66.2135 43.2136 65.568 43.6401 64.9076 44.0332C64.2419 44.4175 63.5601 44.7704 62.8588 45.0705C61.4605 45.6804 60.0129 46.1396 58.5456 46.4837C58.426 46.5116 58.3064 46.4374 58.2782 46.3178C58.2533 46.2112 58.3097 46.1046 58.4066 46.0628L58.4091 46.0618C59.0955 45.7656 59.7822 45.4808 60.4572 45.1752C60.7936 45.0209 61.1313 44.8702 61.4612 44.7053C61.7953 44.5494 62.1222 44.3806 62.4479 44.2117C63.099 43.8725 63.7319 43.5072 64.3421 43.1116C64.9558 42.7224 65.5411 42.2943 66.1017 41.8393L66.5142 41.489C66.652 41.3723 66.7806 41.2459 66.9145 41.1254C67.0496 41.0055 67.1737 40.8749 67.3017 40.7485L67.4783 40.5725L67.6582 40.3684C67.7765 40.2316 67.8954 40.0923 67.9997 39.9601L68.071 39.8664C68.0801 39.8538 68.0934 39.8359 68.097 39.8298L68.1336 39.7731C68.1994 39.6746 68.2626 39.59 68.3303 39.5044C68.5993 39.1684 68.912 38.8638 69.2976 38.6152C69.6787 38.3679 70.1538 38.1865 70.66 38.1719C70.6781 38.1719 70.6966 38.1719 70.7147 38.1716C70.7595 38.1712 70.8042 38.1709 70.8486 38.1742L71.019 38.1871C71.103 38.1952 71.1862 38.2017 71.2686 38.2053C71.4328 38.213 71.5946 38.2121 71.7436 38.1985C71.892 38.1855 72.0307 38.1589 72.1231 38.1236C72.1694 38.1071 72.1989 38.088 72.2106 38.0799C72.221 38.0705 72.209 38.0789 72.2006 38.0977C72.1921 38.123 72.2148 38.0481 72.1863 37.9282C72.163 37.8089 72.1134 37.6589 72.0518 37.5037C71.9261 37.1871 71.7657 36.8601 71.6062 36.4991C71.4484 36.1348 71.3029 35.7729 71.1908 35.3483L71.1856 35.3276L71.1768 35.2874C71.1713 35.2589 71.1674 35.2304 71.1655 35.1999C71.158 35.0797 71.182 34.9494 71.2468 34.8302C71.3107 34.7119 71.4189 34.5949 71.5829 34.5262C71.7452 34.4533 71.9656 34.464 72.1088 34.5333L72.2456 34.5975L72.4851 34.7044C72.6458 34.7735 72.8078 34.8376 72.9692 34.8947C73.2875 35.0078 73.6232 35.0985 73.8782 35.1121C73.9343 35.1173 73.9842 35.1124 74.0169 35.1076C74.0561 35.1017 74.0714 35.0959 74.0451 35.1072C74.0234 35.1196 73.9868 35.1653 73.9829 35.1841C73.9796 35.1941 73.98 35.1947 73.9806 35.1886C73.9809 35.1853 73.9822 35.1834 73.9806 35.1886C73.9822 35.1944 73.98 35.1811 73.9803 35.1772C73.9771 35.1059 73.9346 34.9332 73.885 34.778C73.8338 34.616 73.7735 34.4462 73.711 34.2744C73.4576 33.5845 73.1795 32.8651 72.965 32.1136C72.9115 31.9253 72.8603 31.7354 72.8153 31.5422C72.7702 31.3514 72.7297 31.1456 72.696 30.9687L72.4828 29.8698L72.0431 27.6752C71.7407 26.2176 71.4319 24.7499 71.0848 23.3182L72.2479 23.034L72.2592 23.0807L71.0916 23.3467C70.7961 22.1179 70.3605 20.8751 69.8417 19.6907C69.3209 18.5004 68.7094 17.3429 68.0555 16.2022L67.8102 15.7783C67.735 15.6542 67.6459 15.5135 67.5584 15.3813C67.3818 15.1133 67.1958 14.8479 67.0058 14.5851C66.6241 14.0611 66.2223 13.5491 65.8026 13.052C64.9623 12.0587 64.0569 11.1193 63.087 10.2543C61.1497 8.52612 58.9591 7.07368 56.5665 6.10506C56.271 5.97543 55.9644 5.87692 55.664 5.76123C55.3562 5.65267 55.0422 5.54799 54.7311 5.44624C54.1079 5.24305 53.4844 5.05477 52.8573 4.89371C52.2299 4.73395 51.5993 4.60239 50.9658 4.50841C50.6488 4.46012 50.3309 4.42545 50.013 4.39628L49.5354 4.36323L49.2865 4.35383L49.1621 4.34929L49.0998 4.34702C49.0691 4.34475 49.061 4.34508 49.0678 4.34541C49.0749 4.34573 49.0985 4.34606 49.1303 4.34314L49.0535 4.34638C48.1364 4.32143 47.2141 4.36193 46.2948 4.44554C45.3773 4.53109 44.4651 4.66428 43.5649 4.85288C42.665 5.04408 41.7773 5.28874 40.9082 5.58688C40.0401 5.88793 39.1917 6.24505 38.3679 6.65174L38.1407 6.7642L37.9048 6.67767C35.4079 5.76317 32.8705 4.92709 30.3075 4.2511C29.0262 3.91829 27.7338 3.62243 26.445 3.44938C25.8034 3.36609 25.1569 3.31165 24.5489 3.34632C24.2479 3.36479 23.953 3.40822 23.719 3.4928C23.603 3.53461 23.5051 3.58645 23.4394 3.63992C23.4047 3.66844 23.3839 3.68885 23.358 3.72353C23.3191 3.78121 23.2754 3.83468 23.2394 3.89463C22.939 4.3642 22.7728 4.94038 22.7128 5.54702C22.6516 6.15464 22.683 6.78882 22.7689 7.42139C22.9439 8.68977 23.3143 9.95296 23.7612 11.187C24.2106 12.4223 24.744 13.6343 25.3254 14.8236C25.9081 16.0123 26.5387 17.1824 27.2134 18.3202L27.3553 18.5597L27.2367 18.8112C26.7474 19.8491 26.3407 20.9416 25.9787 22.0495C25.7992 22.6043 25.6297 23.1636 25.4712 23.7259C25.3922 24.0072 25.315 24.2888 25.2415 24.5714L25.1332 24.9952L25.037 25.3903L25.0295 25.4259C24.9757 25.6596 24.9203 25.936 24.8698 26.1946L24.7188 26.9859L24.4313 28.5764L23.8853 31.7681C23.7002 32.8923 23.3162 33.9471 22.9717 34.9562C22.8878 35.2064 22.8052 35.4589 22.7546 35.6825C22.728 35.7897 22.7193 35.9038 22.7232 35.9145C22.7261 35.9394 22.731 35.9495 22.731 35.9495C22.731 35.9495 22.7232 35.9391 22.7203 35.9378C22.7109 35.9346 22.7569 35.9589 22.8392 35.9621C22.9199 35.9673 23.0246 35.9589 23.1334 35.9404C23.3532 35.9031 23.591 35.8309 23.8263 35.7447C24.0619 35.6578 24.2981 35.5557 24.5298 35.4449L24.7022 35.36L24.7447 35.3383C24.7632 35.3321 24.7201 35.3435 24.8435 35.2962C24.9372 35.2654 25.0542 35.2634 25.1514 35.2942C25.35 35.3577 25.457 35.5023 25.5023 35.64C25.5253 35.71 25.5328 35.7823 25.5276 35.8503C25.5263 35.8672 25.5241 35.8834 25.5215 35.8999L25.5159 35.9278L25.5127 35.942C25.4784 36.094 25.4382 36.2343 25.3944 36.3727C25.3073 36.6485 25.2065 36.9126 25.0989 37.1722C24.991 37.4298 24.8837 37.6722 24.7881 37.9126C24.6941 38.1499 24.6079 38.3897 24.5788 38.5822C24.5639 38.6774 24.5661 38.7555 24.5765 38.798C24.581 38.8054 24.583 38.8184 24.5849 38.8229C24.5865 38.8268 24.5875 38.8304 24.5914 38.8349C24.5972 38.844 24.6086 38.8579 24.6306 38.8754C24.7207 38.9516 24.9488 39.0303 25.1809 39.0757C25.4174 39.1243 25.6747 39.1557 25.9366 39.183C26.0461 39.1933 26.2577 39.2157 26.4097 39.2624C26.5724 39.3055 26.7198 39.3648 26.8627 39.428C27.145 39.5576 27.3958 39.7135 27.6334 39.8787C28.1058 40.2109 28.5278 40.58 28.9303 40.9608C29.3324 41.3419 29.7145 41.7362 30.0878 42.1316L30.6429 42.7201C30.735 42.8167 30.8267 42.9119 30.9171 43.002C31.0052 43.0908 31.1028 43.1825 31.1666 43.2315L31.0593 43.1725C31.1481 43.2072 31.1971 43.2545 31.2198 43.2762C31.2311 43.2875 31.2369 43.2943 31.235 43.2917C31.2424 43.2982 31.1987 43.2558 31.1951 43.2541L31.2013 43.259L31.2133 43.2691L31.2376 43.2891L31.2859 43.3293L31.3824 43.4094L31.5788 43.5662C31.7107 43.6699 31.8436 43.772 31.979 43.8708C32.2493 44.0688 32.5241 44.262 32.8064 44.4438C33.0886 44.6259 33.3767 44.7996 33.6697 44.9645C33.9655 45.1327 34.2523 45.2808 34.5605 45.4208C35.7777 45.9912 37.07 46.4095 38.3929 46.7138L38.3951 46.7145C38.5918 46.7598 38.7146 46.9559 38.6696 47.1529C38.6255 47.3441 38.4382 47.4656 38.247 47.4306Z" fill="black"/>
<path d="M37.7998 33.9021C37.6637 33.3486 37.6436 32.7996 37.6848 32.2335C37.7347 31.6719 37.863 31.0993 38.1226 30.5558C38.3789 30.0153 38.7694 29.4987 39.287 29.128C39.7961 28.7488 40.4144 28.5278 41.0019 28.4423C41.5936 28.3454 42.232 28.3551 42.8374 28.5418C43.4424 28.7252 43.9884 29.0839 44.3968 29.5334C44.493 29.6501 44.5944 29.7628 44.6829 29.8834C44.7633 30.0091 44.8485 30.1313 44.9214 30.259C44.9878 30.3899 45.0591 30.5179 45.1191 30.6498C45.1739 30.7839 45.2296 30.9171 45.2746 31.0532C45.4532 31.5977 45.5349 32.1619 45.5063 32.715C45.4999 32.8369 45.3962 32.9305 45.2743 32.9244C45.1771 32.9195 45.098 32.8524 45.0731 32.7636L45.0721 32.7601C44.9344 32.2688 44.7536 31.8031 44.5137 31.3841L44.3248 31.0792C44.2587 30.9813 44.1845 30.8896 44.1168 30.7953C44.0432 30.7055 43.9615 30.6239 43.8867 30.5383C43.8073 30.457 43.7211 30.385 43.6407 30.3079C43.3005 30.0214 42.9161 29.8231 42.5062 29.7308C42.0966 29.6352 41.6604 29.6452 41.221 29.7256C40.3301 29.8704 39.6282 30.3358 39.1479 31.1096C38.6631 31.8738 38.3968 32.8693 38.2351 33.868L38.2325 33.8846C38.213 34.0048 38.0996 34.0868 37.979 34.0673C37.889 34.0528 37.8203 33.9853 37.7998 33.9021Z" fill="black"/>
<path d="M58.9933 31.3754C58.8588 30.8497 58.8364 30.3286 58.8727 29.79C58.9171 29.2557 59.037 28.7096 59.2833 28.1905C59.5267 27.6746 59.899 27.1801 60.3938 26.8252C60.8799 26.4623 61.4717 26.251 62.0317 26.1696C62.5962 26.0773 63.2061 26.0873 63.7848 26.2662C64.363 26.4425 64.8844 26.7863 65.2729 27.2163C65.6657 27.6451 65.9366 28.1496 66.1045 28.6678C66.2723 29.1866 66.3468 29.7236 66.3154 30.2492C66.308 30.3714 66.2033 30.4641 66.0814 30.457C65.9855 30.4511 65.9077 30.3853 65.8821 30.2982L65.8812 30.294C65.7464 29.8306 65.5723 29.3921 65.3436 28.9984C65.1151 28.6056 64.8367 28.2585 64.5169 27.9909C64.1964 27.7238 63.8367 27.5404 63.4536 27.4552C63.0709 27.367 62.6632 27.3771 62.2507 27.4526C61.4153 27.5903 60.7636 28.0203 60.3086 28.7443C59.8497 29.4592 59.5924 30.398 59.4285 31.3416L59.4255 31.3585C59.4048 31.4787 59.2901 31.5594 59.1699 31.5387C59.0814 31.5231 59.0143 31.457 58.9933 31.3754Z" fill="black"/>
<path d="M53.3837 35.4932C60.8206 35.4932 66.0979 36.7389 70.1244 39.2516C71.817 40.3077 73.5714 42.4945 72.9703 44.8358C72.0085 48.581 64.2012 49.4958 53.3837 49.4958C42.5665 49.4958 34.7593 48.581 33.7978 44.8358C33.1963 42.4945 34.9508 40.3077 36.6433 39.2516C40.6701 36.7389 45.9471 35.4932 53.3837 35.4932Z" fill="#FF8800"/>
<path d="M72.1867 42.733C71.6245 41.9148 70.8681 41.232 70.1241 40.7673C68.8055 39.9442 67.3524 39.2571 65.7334 38.7053C65.7013 38.5808 65.667 38.4564 65.6303 38.332C65.63 38.3316 65.63 38.3313 65.63 38.331C65.629 38.3277 65.6281 38.3242 65.6271 38.3209C65.6268 38.32 65.6264 38.319 65.6261 38.3183C65.6255 38.3154 65.6245 38.3128 65.6238 38.3099C65.6232 38.3086 65.6229 38.3073 65.6226 38.306C65.6219 38.3038 65.6213 38.3015 65.6206 38.2992C65.62 38.2976 65.6196 38.296 65.619 38.2944C65.6187 38.2924 65.618 38.2908 65.6174 38.2889C65.6167 38.2866 65.6161 38.2846 65.6154 38.2824C65.6151 38.2814 65.6148 38.2804 65.6148 38.2795C65.5587 38.0925 65.4975 37.9055 65.4314 37.7192C67.0351 38.2558 68.4756 38.9282 69.8078 39.7594C70.8412 40.4043 71.8296 41.4559 72.2619 42.6497C72.2376 42.6776 72.2123 42.7058 72.1867 42.733ZM34.581 42.733C34.5554 42.7055 34.5302 42.6776 34.5059 42.6497C34.9382 41.4559 35.9265 40.4043 36.9603 39.7594C38.4724 38.8155 40.1244 38.0769 42.0007 37.5072C42.1858 37.7493 42.3695 37.9943 42.552 38.2412C40.3078 38.8534 38.3615 39.695 36.6434 40.7673C35.8996 41.232 35.1433 41.9145 34.581 42.733ZM60.1608 37.4288C59.655 37.3591 59.1358 37.2982 58.6034 37.246C58.7541 36.9699 58.8169 36.6595 58.8293 36.3555C59.0059 36.374 59.1802 36.3934 59.3533 36.4138C59.6271 36.7447 59.8961 37.084 60.1608 37.4288ZM47.0798 37.3666C46.9676 37.0778 46.8432 36.7901 46.7071 36.5039C47.1102 36.4488 47.5221 36.3993 47.9421 36.3552C47.9599 36.6488 48.0147 36.9586 48.1346 37.2489C47.7768 37.2843 47.4255 37.3235 47.0798 37.3666Z" fill="#FF8800"/>
<path d="M53.3836 48.897C45.0384 48.897 35.336 48.4184 34.3774 44.6872C34.2338 44.1281 34.252 43.5688 34.3881 43.0315C34.4493 42.9304 34.5138 42.8306 34.5809 42.7331C36.9796 45.3155 44.0646 45.9944 53.3836 45.9944C62.7029 45.9944 69.7885 45.3155 72.1866 42.7331C72.254 42.8309 72.3182 42.9304 72.3794 43.0318C72.5155 43.5688 72.5337 44.1281 72.3901 44.6872C71.4315 48.4184 61.7291 48.897 53.3836 48.897Z" fill="black"/>
<path d="M72.3795 43.0319C72.3183 42.9304 72.2541 42.8309 72.1867 42.7331C72.2123 42.7059 72.2376 42.6777 72.2619 42.6498C72.3076 42.7759 72.3471 42.9029 72.3795 43.0319ZM34.3882 43.0315C34.4209 42.9029 34.4601 42.7755 34.5058 42.6498C34.5301 42.6777 34.5554 42.7055 34.581 42.7331C34.5139 42.8306 34.4494 42.9304 34.3882 43.0315Z" fill="#FF8800"/>
<path d="M42.0007 37.5072C40.1244 38.0769 38.4723 38.8155 36.9602 39.7595C35.3626 40.7563 33.8732 42.7233 34.3775 44.6871C35.336 48.4184 45.0384 48.897 53.3837 48.897C61.7292 48.897 71.4316 48.4184 72.3902 44.6871C72.8944 42.7233 71.405 40.7563 69.8077 39.7595C68.4755 38.9282 67.0351 38.2558 65.4313 37.7192C65.6092 38.2208 65.7508 38.7254 65.8552 39.228C66.0943 40.3826 66.3153 42.3695 65.1092 42.7006C64.1162 42.9732 63.2575 41.7281 62.6894 40.904C62.6265 40.813 62.5705 40.7313 62.5222 40.6646C62.3261 40.393 62.1314 40.1211 61.9363 39.8489C61.1115 38.6975 60.2586 37.5072 59.3532 36.4139C58.1885 36.2765 56.9425 36.1825 55.6352 36.1335C56.157 37.1495 56.5293 38.1868 56.7448 39.228C56.984 40.3826 57.2053 42.3695 55.9992 42.7006C55.0053 42.9735 54.1471 41.7281 53.5794 40.9044C53.5165 40.8133 53.4601 40.7313 53.4119 40.6646C53.2161 40.3936 53.0217 40.1221 52.8269 39.8502C51.996 38.6904 51.1369 37.491 50.2237 36.3908C50.1667 36.3218 50.109 36.2531 50.0513 36.1847C48.8854 36.2528 47.7648 36.3594 46.707 36.5039C47.1341 37.4026 47.4452 38.3158 47.6345 39.228C47.8736 40.3826 48.0947 42.3695 46.8885 42.7006C45.8956 42.9735 45.0358 41.7272 44.4674 40.9021C44.4052 40.8117 44.3492 40.7307 44.3012 40.6642C44.1025 40.3888 43.9045 40.1124 43.7062 39.8359C43.1534 39.0643 42.5843 38.2697 42.0007 37.5072ZM53.3837 50.0944C47.2427 50.0944 42.9187 49.7966 39.7757 49.1569C35.8805 48.3643 33.7352 46.9996 33.2177 44.9849C32.5601 42.4236 34.3049 40.0048 36.326 38.7435C38.0374 37.6751 39.9124 36.8568 42.0587 36.2414L42.4472 36.13L42.6958 36.4485C43.3818 37.3271 44.0416 38.248 44.6797 39.1386C44.8771 39.4137 45.0741 39.6888 45.2721 39.9633C45.3246 40.0359 45.3855 40.1243 45.4536 40.2229C45.962 40.9611 46.3285 41.393 46.5453 41.511C46.6558 41.2242 46.6523 40.3904 46.462 39.471C46.2436 38.4185 45.8421 37.3595 45.2688 36.3241L44.8557 35.5774L45.6982 35.4426C47.1179 35.2155 48.6605 35.0573 50.283 34.9727L50.5763 34.9575L50.7678 35.1801C50.8955 35.3282 51.0216 35.4767 51.1457 35.6267C52.0855 36.759 52.9572 37.9761 53.8004 39.1531C53.9942 39.4234 54.188 39.6937 54.3824 39.9633C54.4352 40.0362 54.4965 40.1253 54.5652 40.2248C55.073 40.9614 55.4392 41.393 55.6557 41.511C55.7662 41.2242 55.7626 40.3901 55.5724 39.471C55.318 38.2416 54.8173 37.013 54.0846 35.8185L53.5126 34.8862L54.606 34.9066C56.4308 34.941 58.1558 35.0577 59.7336 35.2537L59.9653 35.2825L60.1164 35.4605C60.1633 35.5159 60.21 35.571 60.256 35.6267C61.1955 36.7587 62.0669 37.9752 62.9098 39.1515C63.1039 39.4224 63.298 39.6933 63.4927 39.9633C63.5452 40.0362 63.6068 40.125 63.6752 40.2242C64.1833 40.9611 64.5492 41.3927 64.766 41.511C64.8762 41.2239 64.8729 40.3901 64.6824 39.471C64.5139 38.658 64.2349 37.8371 63.8528 37.0312L63.2905 35.8438L64.5557 36.198C66.7622 36.8167 68.6878 37.6492 70.4416 38.7435C72.4628 40.0048 74.2075 42.4236 73.55 44.9849C73.0325 46.9996 70.8872 48.3643 66.992 49.1569C63.8489 49.7966 59.5249 50.0944 53.3837 50.0944Z" fill="black"/>
<path d="M46.7304 42.1232C46.0595 42.3072 45.1749 40.8519 44.7866 40.3136C43.9402 39.1415 43.1103 37.9522 42.2236 36.817C43.3361 36.4984 44.5225 36.2376 45.7928 36.0341C46.3655 37.0685 46.8065 38.1845 47.0483 39.3495C47.1769 39.9714 47.4737 41.919 46.7304 42.1232Z" fill="#FF8800"/>
<path d="M46.6099 42.1393C46.4832 42.1393 46.3506 42.0894 46.2168 42.0055C46.3506 42.0894 46.4832 42.139 46.6099 42.139C46.6507 42.139 46.6909 42.1342 46.7304 42.1231C46.9242 42.07 47.0474 41.8982 47.1213 41.6627C47.0477 41.8982 46.9245 42.07 46.7298 42.1235C46.6906 42.1342 46.6504 42.1393 46.6099 42.1393Z" fill="white"/>
<path d="M42.849 36.6462C42.8486 36.6459 42.8486 36.6459 42.8486 36.6456C43.0625 36.5899 43.2793 36.5364 43.499 36.4845C43.499 36.4845 43.4993 36.4845 43.4993 36.4849C43.4319 36.5007 43.3642 36.5169 43.2975 36.5331C43.1468 36.5698 42.9971 36.6074 42.849 36.6462Z" fill="black"/>
<path d="M43.2976 36.5331C43.3644 36.5169 43.4321 36.5007 43.4995 36.4848C43.4321 36.5007 43.3647 36.5166 43.2976 36.5331Z" fill="black"/>
<path d="M42.2244 36.8167C42.2241 36.8167 42.2241 36.8163 42.2241 36.8163C42.4296 36.7573 42.6379 36.7006 42.8489 36.6455C42.8489 36.6459 42.8489 36.6459 42.8492 36.6462C42.6383 36.701 42.4302 36.758 42.2244 36.8167Z" fill="white"/>
<path d="M55.8402 42.1232C55.1697 42.3072 54.2857 40.8519 53.8968 40.3136C52.8468 38.8596 51.8221 37.3799 50.6844 36.0088C50.5625 35.8617 50.4391 35.7158 50.314 35.5707C51.2946 35.5191 52.317 35.4935 53.3835 35.4935C53.7937 35.4935 54.1975 35.4971 54.5945 35.5052C55.3178 36.6838 55.8755 37.983 56.1584 39.3495C56.2871 39.9714 56.5839 41.919 55.8402 42.1232Z" fill="#FF8800"/>
<path d="M64.9508 42.1232C64.2806 42.3072 63.3963 40.8519 63.0074 40.3136C61.9574 38.8596 60.9327 37.3799 59.795 36.0088C59.7506 35.9547 59.7055 35.9015 59.6602 35.8481C61.3761 36.0603 62.9474 36.3691 64.394 36.7749C64.7823 37.5944 65.084 38.4577 65.269 39.3495C65.3977 39.9714 65.6945 41.919 64.9508 42.1232Z" fill="#FF8800"/>
<path d="M46.2167 42.0056C45.6609 41.6575 45.0812 40.7219 44.7866 40.3136C43.9402 39.1415 43.1103 37.9522 42.2236 36.817C42.224 36.817 42.224 36.817 42.2243 36.8167C43.1106 37.9532 43.9402 39.1412 44.7873 40.314C45.0809 40.7216 45.6609 41.6572 46.2167 42.0056ZM47.1212 41.6627C47.1607 41.535 47.1863 41.3885 47.2006 41.232C46.6205 40.9336 45.9964 39.9218 45.6866 39.4921C44.9597 38.4885 44.2471 37.4693 43.4995 36.4848C44.2325 36.3118 44.9963 36.1618 45.7928 36.0341C46.3655 37.0685 46.8065 38.1845 47.0483 39.3495C47.1118 39.6568 47.2164 40.2877 47.2164 40.8723C47.2164 41.1623 47.1905 41.4407 47.1212 41.6627Z" fill="#FF8800"/>
<path d="M46.6096 42.139C46.4829 42.139 46.3504 42.0895 46.2166 42.0055C45.6608 41.6572 45.0807 40.7216 44.7871 40.3139C43.94 39.1411 43.1104 37.9531 42.2241 36.8167C42.6386 36.698 43.0634 36.5875 43.4993 36.4848C44.2469 37.4693 44.9595 38.4885 45.6864 39.4921C45.9962 39.9218 46.6203 40.9335 47.2004 41.232C47.1861 41.3885 47.1605 41.535 47.121 41.6627C47.0471 41.8983 46.924 42.07 46.7302 42.1232C46.6907 42.1342 46.6505 42.139 46.6096 42.139Z" fill="black"/>
<path d="M55.7282 40.7744C55.3652 40.3619 55.0373 39.8479 54.839 39.5725C54.2495 38.7571 53.6697 37.9321 53.0706 37.1245C53.4358 36.7246 53.6396 36.396 53.6396 36.396C53.9682 36.8299 54.4524 37.3215 55.0295 37.6851C55.2674 38.2775 55.4488 38.8744 55.5726 39.471C55.6718 39.9506 55.7204 40.4069 55.7282 40.7744Z" fill="#FF8800"/>
<path d="M64.837 40.7284C64.5686 40.3839 64.3343 40.0223 64.1791 39.8064C63.4594 38.8109 62.7526 37.8034 62.0125 36.827C62.6888 36.9596 63.3414 37.1103 63.9665 37.2781C64.2906 38.0047 64.5311 38.7409 64.6824 39.471C64.7777 39.9306 64.8263 40.369 64.837 40.7284Z" fill="#FF8800"/>
<path d="M64.766 41.511C64.5492 41.3927 64.1834 40.9611 63.6752 40.2241C63.6069 40.125 63.5453 40.0362 63.4928 39.9633C63.298 39.6933 63.1039 39.4224 62.9098 39.1515C62.3181 38.3258 61.7124 37.48 61.0789 36.6578C61.3948 36.7107 61.7059 36.7667 62.0125 36.827C62.7526 37.8034 63.4594 38.8109 64.1791 39.8064C64.3344 40.0222 64.5687 40.3839 64.837 40.7284C64.8477 41.0874 64.8211 41.3674 64.766 41.511Z" fill="black"/>
<path d="M43.2424 37.1637C43.7343 37.8193 44.2126 38.4868 44.6796 39.1385C44.8769 39.4136 45.074 39.6888 45.272 39.9632C45.3245 40.0358 45.3854 40.1243 45.4534 40.2228C45.9619 40.961 46.3284 41.393 46.5449 41.511C46.6557 41.2242 46.6522 40.3904 46.4619 39.4707C46.2694 38.5439 45.9353 37.6119 45.4664 36.6954C44.6977 36.8286 43.9537 36.9854 43.2424 37.1637ZM46.6071 42.7388C45.7328 42.7388 44.9813 41.648 44.4673 40.9021C44.4051 40.8116 44.349 40.7306 44.3011 40.6642C44.1024 40.3891 43.9044 40.1123 43.7061 39.8359C43.0752 38.9554 42.4228 38.0448 41.7517 37.1854L41.2053 36.4857L42.0589 36.2414C43.1905 35.9173 44.4148 35.6487 45.6978 35.4426L46.1129 35.3762L46.3164 35.744C46.948 36.885 47.3917 38.0574 47.6344 39.2279C47.8735 40.3826 48.0945 42.3694 46.8887 42.7006C46.7934 42.7265 46.6995 42.7388 46.6071 42.7388Z" fill="black"/>
<path d="M51.5465 36.1192C52.3353 37.1079 53.0784 38.1449 53.8004 39.1531C53.9942 39.4234 54.1879 39.6936 54.3824 39.9632C54.4349 40.0362 54.4964 40.1253 54.5651 40.2248C55.073 40.9614 55.4391 41.393 55.6556 41.511C55.7661 41.2242 55.7626 40.39 55.5723 39.471C55.3377 38.3374 54.8937 37.2042 54.2515 36.0982C53.9721 36.0943 53.6814 36.0923 53.3836 36.0923C52.7598 36.0923 52.1451 36.1014 51.5465 36.1192ZM55.7178 42.7388C54.8438 42.7388 54.093 41.6493 53.5794 40.9043C53.5165 40.8133 53.4601 40.7313 53.4118 40.6645C53.2161 40.3936 53.0216 40.122 52.8269 39.8501C51.996 38.6903 51.1369 37.491 50.2237 36.3908C50.1041 36.2463 49.9829 36.1037 49.8604 35.9614L49.0642 35.0365L50.2827 34.9727C51.2701 34.9209 52.3136 34.8946 53.3836 34.8946C53.8091 34.8946 54.2207 34.8988 54.6069 34.9066L54.9339 34.9134L55.1054 35.1921C55.9107 36.5052 56.4622 37.863 56.7448 39.2279C56.9839 40.3826 57.2053 42.3694 55.9991 42.7006C55.9038 42.7265 55.8102 42.7388 55.7178 42.7388Z" fill="black"/>
<path d="M61.0789 36.6578C61.7124 37.48 62.3181 38.3258 62.9098 39.1515C63.1039 39.4224 63.298 39.6933 63.4928 39.9632C63.5453 40.0362 63.6069 40.125 63.6753 40.2241C64.1834 40.961 64.5492 41.3927 64.766 41.511C64.8762 41.2238 64.873 40.39 64.6824 39.471C64.5311 38.7409 64.2906 38.0046 63.9666 37.2781C63.0579 37.0341 62.0916 36.8263 61.0789 36.6578ZM64.8283 42.7388C63.9546 42.7388 63.2034 41.6493 62.6895 40.904C62.6266 40.8129 62.5705 40.7313 62.5222 40.6645C62.3262 40.393 62.1314 40.1211 61.9363 39.8489C61.1058 38.6894 60.2467 37.4907 59.3341 36.3908C59.2907 36.3386 59.2473 36.2871 59.2035 36.2356L58.21 35.0654L59.7334 35.2537C61.459 35.4669 63.0812 35.7848 64.5557 36.1983L64.8182 36.2719L64.9352 36.5185C65.3575 37.4103 65.6673 38.3219 65.8552 39.2279C66.0944 40.3826 66.3154 42.3694 65.1092 42.7006C65.0143 42.7265 64.9206 42.7388 64.8283 42.7388Z" fill="black"/>
<path d="M55.6556 41.511C55.4391 41.393 55.0729 40.9614 54.5651 40.2248C54.4964 40.1253 54.4348 40.0362 54.3823 39.9633C54.1879 39.6937 53.9941 39.4234 53.8003 39.1531C53.3541 38.5299 52.8994 37.8954 52.4312 37.2684C52.9276 36.9404 53.3414 36.525 53.6444 36.1387C53.9737 36.5007 54.3512 36.8196 54.7589 37.0645C54.8558 37.2706 54.9459 37.4777 55.0291 37.6851C54.452 37.3215 53.9678 36.8299 53.6392 36.396C53.6392 36.396 53.4354 36.7246 53.0702 37.1245C53.6694 37.9321 54.2491 38.7571 54.8386 39.5725C55.0369 39.8479 55.3649 40.3619 55.7278 40.7744C55.735 41.1114 55.7084 41.3739 55.6556 41.511Z" fill="black"/>
<path d="M50.3365 38.5458C49.9532 38.5458 49.5458 38.4645 49.1193 38.2704C48.6067 38.0377 48.305 37.6628 48.1345 37.2489C48.3225 37.2305 48.5121 37.213 48.7032 37.1968C48.8663 37.352 49.062 37.4871 49.2966 37.5937C49.7338 37.7924 50.1573 37.8773 50.5611 37.8773C50.822 37.8773 51.0747 37.8417 51.3168 37.7785C51.4286 37.9269 51.5401 38.076 51.6506 38.2253C51.2572 38.4185 50.8158 38.5458 50.3365 38.5458Z" fill="black"/>
<path d="M48.1346 37.2489C48.0147 36.9585 47.96 36.6487 47.9421 36.3551C48.0138 36.3477 48.0854 36.3406 48.157 36.3334C48.2694 36.651 48.4444 36.9495 48.7034 37.1967C48.5122 37.2129 48.3226 37.2304 48.1346 37.2489Z" fill="black"/>
<path d="M47.9419 36.3552C47.9215 36.012 47.9516 35.6908 47.9889 35.4491C48.0044 35.7433 48.0553 36.0463 48.1568 36.3335C48.0851 36.3406 48.0135 36.3477 47.9419 36.3552Z" fill="black"/>
<path d="M56.707 38.2208C56.6321 38.2208 56.5579 38.2176 56.4841 38.2108C56.4186 37.9963 56.3463 37.7824 56.2676 37.5685C56.3304 37.573 56.3933 37.5753 56.4565 37.5753C56.9228 37.5753 57.3953 37.4544 57.8535 37.179C58.1066 37.1997 58.3565 37.2221 58.6034 37.246C58.4819 37.4693 58.303 37.6706 58.0473 37.8277C57.5959 38.1055 57.1435 38.2208 56.707 38.2208Z" fill="black"/>
<path d="M58.6034 37.246C58.3565 37.2221 58.1066 37.1997 57.8535 37.179C57.8626 37.1738 57.8717 37.1683 57.8804 37.1628C58.2417 36.9404 58.4692 36.6494 58.6057 36.3328C58.6805 36.3403 58.7551 36.3477 58.8293 36.3555C58.8169 36.6595 58.7541 36.9699 58.6034 37.246Z" fill="black"/>
<path d="M58.8293 36.3555C58.7551 36.3478 58.6806 36.3403 58.6057 36.3328C58.6909 36.1345 58.7408 35.9261 58.7648 35.7187L58.7963 35.7557C58.8228 35.944 58.8381 36.1481 58.8293 36.3555Z" fill="black"/>
<path d="M55.7209 42.1393C55.0673 42.1393 54.2629 40.8198 53.8971 40.3139C53.3219 39.5157 52.7528 38.7098 52.1679 37.9194C52.0065 38.0315 51.8338 38.1356 51.6507 38.2253C51.5402 38.0759 51.4287 37.9269 51.3169 37.7785C51.7204 37.6731 52.095 37.491 52.4313 37.2684C52.8996 37.8954 53.3543 38.5299 53.8005 39.1531C53.9943 39.4234 54.1881 39.6937 54.3825 39.9633C54.435 40.0362 54.4966 40.1253 54.5653 40.2248C55.0731 40.9614 55.4393 41.393 55.6558 41.511C55.7086 41.3739 55.7351 41.1114 55.728 40.7744C55.915 40.9873 56.1114 41.1733 56.3039 41.2858C56.2598 41.7074 56.1273 42.0437 55.8418 42.1231L55.8408 42.1235C55.8016 42.1342 55.7614 42.1393 55.7209 42.1393ZM56.4841 38.2108C55.9636 38.1647 55.4694 37.9622 55.0293 37.6851C54.9461 37.4777 54.856 37.2706 54.7591 37.0645C55.2312 37.3481 55.7439 37.5325 56.2676 37.5685C56.3463 37.7823 56.4186 37.9962 56.4841 38.2108Z" fill="black"/>
<path d="M58.7963 35.7557L58.7649 35.7187C58.7688 35.6857 58.772 35.6523 58.7746 35.6192C58.7827 35.6636 58.7898 35.7093 58.7963 35.7557Z" fill="black"/>
<path d="M58.1563 34.0845C58.1563 34.0845 58.9635 36.0577 57.6848 36.8439C56.0346 37.8582 54.3784 36.5257 53.6201 35.5237C53.6201 35.5237 51.8679 38.3517 49.4517 37.2532C47.8346 36.5176 48.4934 34.2511 48.4934 34.2511L58.1563 34.0845Z" fill="white"/>
<path d="M50.5612 37.8773C50.1574 37.8773 49.7338 37.7924 49.2967 37.5937C47.7843 36.9057 47.8747 35.0382 48.1339 34.1467C48.1916 33.9483 48.3993 33.8343 48.5977 33.892C48.796 33.9496 48.9104 34.1574 48.8527 34.3557C48.8297 34.4348 48.3063 36.3211 49.6065 36.9122C51.6905 37.8604 53.2373 35.4299 53.3021 35.3262L53.5902 34.8648L53.9184 35.2981C54.0993 35.5369 55.7364 37.6028 57.4886 36.5249C58.4796 35.916 57.8162 34.2423 57.8094 34.2254C57.732 34.0342 57.824 33.8158 58.0152 33.7383C58.2061 33.6606 58.4242 33.7516 58.5023 33.9428C58.5402 34.0355 59.4126 36.221 57.8804 37.1627C56.3891 38.0791 54.7461 37.3497 53.6446 36.1387C53.0127 36.9443 51.8989 37.8773 50.5612 37.8773Z" fill="black"/>
<path d="M53.5984 34.1629C53.6211 34.1331 53.6428 34.1039 53.6638 34.0754C53.6755 34.0748 53.6869 34.0741 53.6988 34.0731C53.6959 34.1026 53.693 34.1321 53.6894 34.1616L53.5984 34.1629Z" fill="black"/>
<path d="M50.5765 37.1313C50.27 37.1313 49.9452 37.0665 49.6063 36.9122C48.578 36.4446 48.6905 35.1672 48.7935 34.614C48.8733 35.0926 48.9993 35.6403 49.4455 35.9462C49.8023 36.1909 50.1633 36.2933 50.5185 36.2933C51.8018 36.2933 53.0015 34.9542 53.5984 34.1629L53.6895 34.1616C53.6745 34.2983 53.6545 34.4328 53.6259 34.5628C53.5926 34.7193 53.5511 34.8716 53.4989 35.0106L53.3019 35.3263C53.2478 35.4131 52.1544 37.1313 50.5765 37.1313Z" fill="white"/>
<path d="M50.5737 37.5066C50.2205 37.5066 49.8452 37.4317 49.4524 37.2532C48.2353 36.7 48.6015 34.8026 48.7123 34.1334C48.7421 34.2744 48.7651 34.4397 48.794 34.614C48.6909 35.1672 48.5784 36.4446 49.6067 36.9123C49.9457 37.0665 50.2704 37.1313 50.5769 37.1313C52.1548 37.1313 53.2482 35.4132 53.3023 35.3263L53.4993 35.0107C53.4698 35.0894 53.4368 35.1643 53.4002 35.233C53.3908 35.2508 53.3814 35.2715 53.3742 35.291C53.3149 35.4537 53.3554 35.6283 53.4646 35.7482C53.0797 36.2674 52.0106 37.5066 50.5737 37.5066Z" fill="black"/>
<path d="M54.4156 34.149C54.415 34.1363 54.4146 34.1237 54.4143 34.1114C54.425 34.1237 54.436 34.136 54.4467 34.1483L54.4156 34.149Z" fill="black"/>
<path d="M56.4396 36.8345C55.4683 36.8345 54.6319 36.0963 54.2048 35.6358C54.2103 35.6238 54.2155 35.6115 54.2201 35.5988L54.221 35.5966C54.3377 35.2761 54.3827 34.9663 54.4058 34.6646C54.4194 34.4899 54.4207 34.3185 54.4155 34.149L54.4466 34.1483C55.1333 34.9287 56.1502 35.861 56.8971 35.861C57.1441 35.861 57.3615 35.7589 57.5278 35.5162C57.6836 35.2881 57.81 34.8574 57.9037 34.5142C58.0463 35.0236 58.2277 36.0707 57.4885 36.525C57.1301 36.7454 56.7769 36.8345 56.4396 36.8345Z" fill="white"/>
<path d="M56.4479 37.2065C55.4388 37.2065 54.5184 36.5386 53.916 35.8791C54.0398 35.8451 54.1474 35.7586 54.2048 35.6358C54.6319 36.0962 55.4683 36.8345 56.4395 36.8345C56.7768 36.8345 57.1301 36.7453 57.4885 36.525C58.2277 36.0706 58.0462 35.0236 57.9036 34.5142C57.9337 34.4043 57.9603 34.3032 57.9833 34.2209C58.1207 34.8658 58.5209 36.3292 57.6848 36.8435C57.2681 37.1002 56.851 37.2065 56.4479 37.2065Z" fill="black"/>
<path d="M54.1082 32.0922C54.1821 32.3735 54.2382 32.6466 54.2874 32.9286C54.3354 33.2092 54.3746 33.4928 54.396 33.7815C54.4158 34.0706 54.4291 34.3629 54.4057 34.6646C54.3827 34.9663 54.3377 35.2761 54.221 35.5966L54.22 35.5988C54.1351 35.8325 53.8769 35.953 53.6432 35.8681C53.4092 35.7829 53.289 35.5246 53.3739 35.291C53.381 35.2715 53.3904 35.2508 53.3998 35.233C53.5009 35.0431 53.5739 34.8084 53.626 34.5628C53.6798 34.3165 53.7038 34.054 53.721 33.7906C53.7375 33.5261 53.7365 33.2572 53.7275 32.9879C53.7174 32.7199 53.698 32.4444 53.6659 32.1832L53.6652 32.1768C53.65 32.053 53.7382 31.9402 53.8623 31.925C53.9757 31.911 54.08 31.9843 54.1082 32.0922Z" fill="black"/>
<path d="M50.5392 32.7655C50.6873 33.6032 52.3419 34.0854 53.5445 34.0793C54.4522 34.0748 55.9005 33.4636 55.8888 32.5539C55.88 31.8358 55.0634 31.328 52.9032 31.5237C51.1361 31.6835 50.4403 32.2065 50.5392 32.7655Z" fill="black"/>
<path d="M53.6478 32.319C53.3335 32.319 52.9407 32.1385 52.9744 31.9878C53.003 31.8598 53.166 31.7642 53.5409 31.7642C53.6102 31.7642 53.6871 31.7675 53.7716 31.7743C54.3663 31.8235 54.5471 31.9755 54.5098 32.1414C54.4726 32.307 53.8306 32.3181 53.6521 32.319C53.6508 32.319 53.6491 32.319 53.6478 32.319Z" fill="#FF8800"/>
<path d="M58.7512 53.3901C59.2794 53.1338 59.783 52.8752 60.2688 52.5961C60.7523 52.3145 61.2199 52.0216 61.6509 51.6885C62.0878 51.3624 62.4737 50.9846 62.8231 50.5863L63.0794 50.2823L63.3075 49.9593L63.4229 49.7982L63.522 49.6277C63.5875 49.5137 63.6578 49.4019 63.7275 49.2894L63.756 49.2437C63.8918 49.025 64.1792 48.9576 64.398 49.0937C64.6051 49.222 64.6757 49.4884 64.5675 49.702C64.4972 49.839 64.4275 49.9771 64.3533 50.1129L64.2424 50.317L64.1102 50.5069C64.0218 50.6336 63.9339 50.7607 63.84 50.8832L63.5344 51.2289C63.1098 51.6716 62.6364 52.0644 62.1169 52.3703C61.601 52.6804 61.0598 52.9396 60.4924 53.1133C60.2098 53.2015 59.9224 53.2721 59.631 53.3194C59.3417 53.371 59.0461 53.3979 58.7512 53.3901Z" fill="black"/>
<mask id="path-131-inside-1_28_1281" fill="white">
<path d="M44.9294 52.8392C43.7256 52.6474 42.5492 52.3097 41.3968 51.9063C40.2438 51.5005 39.1232 50.9989 38.0376 50.4198C36.954 49.8381 35.9098 49.1654 34.9477 48.372C34.4726 47.9686 34.0086 47.5463 33.5899 47.0764C33.1728 46.6049 32.7817 46.1059 32.4489 45.5644C32.3134 45.3443 32.3821 45.0563 32.6021 44.9208C32.8154 44.7899 33.0928 44.8501 33.2328 45.0546L33.2386 45.0634C33.5633 45.5381 33.9169 45.9957 34.3074 46.4251C34.7021 46.8509 35.123 47.257 35.5663 47.6403C36.4556 48.4061 37.429 49.086 38.4466 49.7023C39.4641 50.32 40.5297 50.8657 41.612 51.3858C42.6967 51.902 43.802 52.3833 44.9294 52.8392Z"/>
</mask>
<path d="M44.9294 52.8392C43.7256 52.6474 42.5492 52.3097 41.3968 51.9063C40.2438 51.5005 39.1232 50.9989 38.0376 50.4198C36.954 49.8381 35.9098 49.1654 34.9477 48.372C34.4726 47.9686 34.0086 47.5463 33.5899 47.0764C33.1728 46.6049 32.7817 46.1059 32.4489 45.5644C32.3134 45.3443 32.3821 45.0563 32.6021 44.9208C32.8154 44.7899 33.0928 44.8501 33.2328 45.0546L33.2386 45.0634C33.5633 45.5381 33.9169 45.9957 34.3074 46.4251C34.7021 46.8509 35.123 47.257 35.5663 47.6403C36.4556 48.4061 37.429 49.086 38.4466 49.7023C39.4641 50.32 40.5297 50.8657 41.612 51.3858C42.6967 51.902 43.802 52.3833 44.9294 52.8392Z" fill="white"/>
<path d="M44.9294 52.8392L45.3044 51.9122L44.7721 53.8268L44.9294 52.8392ZM41.3968 51.9063L41.0664 52.8501L41.0649 52.8496L41.3968 51.9063ZM38.0376 50.4198L37.567 51.3021L37.5647 51.3009L38.0376 50.4198ZM34.9477 48.372L34.3115 49.1436L34.3059 49.139L34.3004 49.1343L34.9477 48.372ZM33.5899 47.0764L32.8433 47.7417L32.8409 47.739L33.5899 47.0764ZM32.4489 45.5644L33.3004 45.0401L33.3008 45.0408L32.4489 45.5644ZM32.6021 44.9208L32.0779 44.0692L32.0789 44.0686L32.6021 44.9208ZM33.2328 45.0546L34.058 44.4897L34.0648 44.4999L33.2328 45.0546ZM33.2386 45.0634L32.4131 45.628L32.4066 45.6181L33.2386 45.0634ZM34.3074 46.4251L33.5739 47.1049L33.5675 47.0979L34.3074 46.4251ZM35.5663 47.6403L34.9138 48.3981L34.9122 48.3967L35.5663 47.6403ZM38.4466 49.7023L38.9647 48.847L38.9655 48.8475L38.4466 49.7023ZM41.612 51.3858L41.1823 52.2888L41.1789 52.2872L41.612 51.3858ZM44.7721 53.8268C43.4899 53.6224 42.2528 53.2655 41.0664 52.8501L41.7273 50.9624C42.8456 51.354 43.9612 51.6723 45.0868 51.8517L44.7721 53.8268ZM41.0649 52.8496C39.8599 52.4255 38.693 51.9028 37.567 51.3021L38.5083 49.5375C39.5535 50.095 40.6278 50.5755 41.7288 50.963L41.0649 52.8496ZM37.5647 51.3009C36.4343 50.6941 35.3333 49.986 34.3115 49.1436L35.5839 47.6005C36.4864 48.3447 37.4736 48.9821 38.5106 49.5387L37.5647 51.3009ZM34.3004 49.1343C33.8101 48.7179 33.3064 48.2614 32.8433 47.7417L34.3365 46.4112C34.7108 46.8312 35.1352 47.2193 35.595 47.6098L34.3004 49.1343ZM32.8409 47.739C32.3983 47.2387 31.9686 46.6928 31.5969 46.088L33.3008 45.0408C33.5947 45.519 33.9473 45.9712 34.3389 46.4139L32.8409 47.739ZM31.5973 46.0886C31.172 45.3977 31.3881 44.4939 32.0779 44.0692L33.1264 45.7724C33.3761 45.6186 33.4548 45.2909 33.3004 45.0401L31.5973 46.0886ZM32.0789 44.0686C32.7474 43.6582 33.6175 43.8465 34.0579 44.4897L32.4076 45.6195C32.568 45.8538 32.8833 45.9216 33.1254 45.773L32.0789 44.0686ZM34.0648 44.4999L34.0707 44.5087L32.4066 45.6181L32.4007 45.6093L34.0648 44.4999ZM34.064 44.4988C34.367 44.9418 34.6923 45.3621 35.0472 45.7523L33.5675 47.0979C33.1414 46.6293 32.7597 46.1345 32.4132 45.6279L34.064 44.4988ZM35.0407 45.7453C35.41 46.1436 35.8044 46.5241 36.2204 46.8839L34.9122 48.3967C34.4416 47.9898 33.9941 47.5582 33.574 47.1049L35.0407 45.7453ZM36.2189 46.8826C37.0571 47.6044 37.9832 48.2525 38.9647 48.847L37.9285 50.5576C36.8748 49.9194 35.854 49.2078 34.9138 48.3981L36.2189 46.8826ZM38.9655 48.8475C39.9434 49.4411 40.9761 49.9708 42.0451 50.4845L41.1789 52.2872C40.0832 51.7606 38.9849 51.1989 37.9277 50.5572L38.9655 48.8475ZM42.0418 50.4829C43.1061 50.9895 44.193 51.4627 45.3044 51.9122L44.5545 53.7663C43.411 53.3038 42.2872 52.8146 41.1823 52.2888L42.0418 50.4829Z" fill="black" mask="url(#path-131-inside-1_28_1281)"/>
<path d="M54.7527 72.7424C54.8457 75.8084 55.5077 79.4706 57.6446 79.7567C61.4504 80.2671 62.8759 75.2665 63.3325 72.9119C61.7109 73.4048 60.6973 73.5707 58.3572 73.4492C56.9803 73.3776 55.5016 73.0441 54.7527 72.7424Z" fill="white"/>
<path d="M58.1764 79.793C58.0046 79.793 57.8271 79.781 57.6446 79.7567C56.7839 79.6414 56.1627 78.9787 55.7213 78.0279C55.5544 77.6682 55.4131 77.2673 55.2945 76.8392C54.9481 75.589 54.7942 74.1067 54.7527 72.7424C55.5016 73.0441 56.9803 73.3776 58.3572 73.4492C58.8456 73.4745 59.2756 73.4874 59.6661 73.4874C61.1464 73.4874 62.0492 73.3021 63.3325 72.9119C62.8976 75.1538 61.5852 79.793 58.1764 79.793Z" fill="black"/>
<path d="M57.9057 80.0033C57.7628 80.0037 57.6179 79.9956 57.4698 79.9797C53.4826 79.5464 54.0358 70.4364 54.061 70.0488C54.0827 69.7189 54.366 69.4736 54.6978 69.4908C55.0277 69.5125 55.2779 69.7977 55.2559 70.1276C55.028 73.5934 55.6042 78.5723 57.5995 78.7891C60.7792 79.1352 62.7157 73.6061 63.3519 71.7894C63.4079 71.6296 63.4565 71.4912 63.4974 71.3791C64.4462 68.783 65.958 63.111 65.4249 54.2897C65.4051 53.9595 65.6566 53.676 65.9865 53.6559C66.3174 53.6358 66.6003 53.8876 66.6204 54.2175C67.1661 63.2555 65.6028 69.1065 64.6222 71.79C64.5827 71.8979 64.536 72.0314 64.4822 72.1854C63.721 74.3588 61.7436 80.003 57.9057 80.0033Z" fill="black"/>
<path d="M7.08398 55.3721C7.22761 53.7077 7.75923 52.1029 9.0152 50.9946C9.27253 51.0757 9.4519 51.3164 9.45245 51.589C9.45252 51.6256 9.44941 51.6625 9.44283 51.6998L9.3761 52.079C8.22902 52.6973 7.43212 53.8438 7.08398 55.3721Z" fill="black"/>
<path d="M16.443 56.6369C16.1951 56.6369 15.9569 56.5987 15.7271 56.5222C14.8269 56.2218 14.0174 55.3095 13.3206 53.8108C12.8281 52.7508 11.8857 51.7128 10.664 51.7128C10.362 51.7128 10.0428 51.7763 9.70899 51.9189C9.59488 51.9675 9.48396 52.021 9.37604 52.079L9.44277 51.6998C9.44935 51.6626 9.45246 51.6256 9.45239 51.589C9.45184 51.3165 9.27247 51.0757 9.01514 50.9947C9.07645 50.9406 9.13919 50.8881 9.20397 50.8362C10.3056 49.9577 11.2379 49.6064 12.0422 49.6064C14.3969 49.6064 15.6565 52.6153 16.8626 54.2184C17.5283 55.1009 18.2052 55.4136 18.7727 55.4751C18.5805 55.7824 18.3494 56.0192 18.096 56.155C17.4952 56.4771 16.9485 56.6369 16.443 56.6369Z" fill="black"/>
<path d="M8.93207 62.6531L8.18925 62.6262C8.18925 62.6262 6.78241 58.8661 7.08385 55.3721C7.43199 53.8438 8.22889 52.6973 9.37597 52.079C9.48388 52.021 9.59481 51.9675 9.70891 51.9189C10.0427 51.7763 10.3619 51.7128 10.6639 51.7128C11.8856 51.7128 12.828 52.7507 13.3206 53.8107C14.0173 55.3095 14.8268 56.2218 15.727 56.5222C15.9568 56.5986 16.195 56.6369 16.4429 56.6369C16.9484 56.6369 17.4951 56.4771 18.0959 56.155C18.3494 56.0192 18.5804 55.7823 18.7726 55.4751C18.8487 55.4832 18.9226 55.4871 18.9946 55.4871C19.1708 55.4871 19.3335 55.4644 19.4784 55.4307C19.1971 56.0153 18.8082 56.4515 18.3782 56.6822C17.6802 57.0569 17.0343 57.2351 16.4377 57.2351C14.9146 57.2351 13.7117 56.0753 12.7771 54.0619C12.5895 53.6575 11.8603 52.3123 10.6646 52.3123C10.4403 52.3123 10.1999 52.3593 9.94353 52.4688C9.68428 52.5796 9.45043 52.7154 9.23707 52.8719C6.9913 54.5201 7.1762 58.6169 8.93207 62.6531Z" fill="black"/>
<path d="M41.5775 76.2669C41.0418 76.2669 40.5628 75.8323 40.2388 75.1479C40.5638 75.2338 40.9015 75.286 41.2411 75.286C41.8863 75.286 42.539 75.0974 43.1278 74.5902C42.8293 75.589 42.2476 76.2669 41.5775 76.2669Z" fill="black"/>
<path d="M67.473 75.6502C67.3152 75.6502 67.1642 75.6191 67.0242 75.5543C66.7286 75.4182 66.5183 75.1479 66.3936 74.7892C66.7367 74.9629 67.1357 75.0711 67.5958 75.0711C67.881 75.0711 68.1901 75.0293 68.5239 74.9363C68.7002 74.887 68.8817 74.806 69.0664 74.6968V74.6965C69.0667 74.6965 69.0667 74.6965 69.0671 74.6962C69.1364 74.6553 69.2061 74.6103 69.2761 74.5617C68.7064 75.2429 68.0446 75.6502 67.473 75.6502Z" fill="black"/>
<path d="M68.5237 74.9363C68.7006 74.887 68.8814 74.8057 69.0662 74.6968C68.8814 74.806 68.7 74.887 68.5237 74.9363Z" fill="black"/>
<path d="M69.7888 73.0185C69.0843 74.5403 67.8347 75.4603 66.998 75.0727C66.1609 74.6855 66.0533 73.1374 66.7578 71.6156C67.4623 70.0935 68.7119 69.1738 69.549 69.5611C70.3857 69.9483 70.4933 71.4964 69.7888 73.0185Z" fill="#FF8800"/>
<path d="M68.7605 67.7179C68.4997 68.2814 68.0372 68.6217 67.7274 68.4784C67.4176 68.3349 67.3778 67.7619 67.6386 67.1987C67.8992 66.6352 68.3619 66.2949 68.6717 66.4382C68.9815 66.5817 69.0214 67.1547 68.7605 67.7179Z" fill="#FF8800"/>
<path d="M71.1731 67.4256C70.8115 68.2069 70.1698 68.679 69.7404 68.4804C69.3107 68.2814 69.2553 67.4868 69.617 66.7055C69.9786 65.9242 70.6203 65.452 71.0497 65.651C71.4794 65.85 71.5345 66.6443 71.1731 67.4256Z" fill="#FF8800"/>
<path d="M71.813 69.5657C71.5735 70.0832 71.1484 70.3959 70.8639 70.264C70.5793 70.1324 70.5427 69.6062 70.7822 69.0883C71.0217 68.5708 71.4468 68.2581 71.7314 68.39C72.0159 68.5215 72.0525 69.0478 71.813 69.5657Z" fill="#FF8800"/>
<path d="M53.6993 72.7424C53.606 75.8084 52.9439 79.4706 50.8071 79.7567C47.0016 80.2671 45.5761 75.2665 45.1191 72.9119C46.7407 73.4048 47.7547 73.5707 50.0944 73.4492C51.4714 73.3776 52.9501 73.0441 53.6993 72.7424Z" fill="white"/>
<path d="M50.2753 79.793C46.8665 79.7934 45.554 75.1538 45.1191 72.9119C46.4024 73.3021 47.3053 73.4874 48.7859 73.4874C49.1761 73.4874 49.6064 73.4745 50.0944 73.4492C51.4714 73.3776 52.9501 73.0441 53.6993 72.7424C53.606 75.8084 52.9439 79.4706 50.8071 79.7567C50.6246 79.781 50.447 79.793 50.2753 79.793Z" fill="black"/>
<path d="M45.249 68.0134C45.32 68.5539 45.4156 69.1165 45.5148 69.6658C45.6133 70.2183 45.7241 70.7682 45.8469 71.3146C46.0841 72.4083 46.3794 73.4865 46.7326 74.5309C47.0887 75.5715 47.5278 76.5835 48.0982 77.451C48.3837 77.883 48.7123 78.2686 49.0765 78.557C49.4417 78.8468 49.8378 79.0192 50.2519 79.0587C50.3556 79.0694 50.4616 79.07 50.5685 79.0649C50.6207 79.0593 50.679 79.0571 50.7267 79.0506C50.7704 79.0418 50.8158 79.0383 50.8576 79.0247C51.0287 78.9838 51.1862 78.8999 51.3391 78.7764C51.6441 78.5266 51.9056 78.1111 52.1003 77.6461C52.298 77.1791 52.4396 76.6639 52.5553 76.137C52.6687 75.6084 52.7511 75.065 52.8104 74.5157C52.9283 73.4161 52.9633 72.2955 52.9458 71.1756C52.9325 70.0534 52.9656 68.935 53.1292 67.7736L53.1299 67.769C53.1383 67.7088 53.1941 67.6666 53.2543 67.6754C53.2897 67.6803 53.3188 67.702 53.335 67.7305C53.6351 68.2681 53.7955 68.8388 53.9229 69.4085C54.045 69.9804 54.117 70.5582 54.1436 71.1383C54.1948 72.2985 54.1928 73.4635 54.1008 74.6362C54.0541 75.2228 53.9828 75.8113 53.8739 76.4017C53.765 76.9925 53.6095 77.5842 53.3733 78.1734C53.254 78.4673 53.1124 78.7609 52.9296 79.0464C52.7465 79.3306 52.5271 79.6115 52.24 79.8533C51.9555 80.095 51.6026 80.295 51.2199 80.3948C51.1249 80.4236 51.0283 80.4385 50.9321 80.456C50.8388 80.4703 50.7545 80.4761 50.6651 80.4855C50.4875 80.4979 50.3073 80.4991 50.1271 80.4839C49.3996 80.4301 48.7146 80.107 48.1889 79.6896C47.6571 79.2697 47.2436 78.7696 46.8982 78.2528C46.5508 77.7352 46.2702 77.195 46.0255 76.647C45.7824 76.0984 45.5737 75.5426 45.3887 74.983C45.017 73.8637 44.7519 72.7256 44.528 71.5858C44.3141 70.4396 44.1511 69.3038 44.0571 68.1288C44.0306 67.7989 44.2765 67.5104 44.6061 67.4839C44.9253 67.4586 45.2056 67.688 45.2474 68.0014L45.249 68.0134Z" fill="black"/>
<path d="M42.9423 73.3364C42.9423 74.9554 42.2206 76.2675 41.3304 76.2675C40.4402 76.2675 39.7185 74.9554 39.7185 73.3364C39.7185 71.7177 40.4402 70.4056 41.3304 70.4056C42.2206 70.4056 42.9423 71.7177 42.9423 73.3364Z" fill="#FF8800"/>
<path d="M39.8929 69.1104C39.8929 69.7095 39.6259 70.1953 39.2963 70.1953C38.9667 70.1953 38.6997 69.7095 38.6997 69.1104C38.6997 68.5112 38.9667 68.0254 39.2963 68.0254C39.6259 68.0254 39.8929 68.5112 39.8929 69.1104Z" fill="#FF8800"/>
<path d="M41.8876 67.8763C41.8876 68.7075 41.5172 69.3809 41.06 69.3809C40.6031 69.3809 40.2327 68.7075 40.2327 67.8763C40.2327 67.0454 40.6031 66.3717 41.06 66.3717C41.5172 66.3717 41.8876 67.0454 41.8876 67.8763Z" fill="#FF8800"/>
<path d="M43.3158 69.4914C43.3158 70.0417 43.0705 70.4882 42.7678 70.4882C42.4648 70.4882 42.2195 70.0417 42.2195 69.4914C42.2195 68.9408 42.4648 68.4946 42.7678 68.4946C43.0705 68.4946 43.3158 68.9408 43.3158 69.4914Z" fill="#FF8800"/>
</svg>
