<svg width="52" height="416" viewBox="0 0 52 416" fill="none" xmlns="http://www.w3.org/2000/svg">
<path d="M43.3997 24.8503C43.5508 25.0012 43.6706 25.1804 43.7524 25.3777C43.8342 25.575 43.8763 25.7864 43.8763 26C43.8763 26.2135 43.8342 26.425 43.7524 26.6223C43.6706 26.8195 43.5508 26.9988 43.3997 27.1497L27.1497 43.3997C26.9988 43.5508 26.8195 43.6706 26.6223 43.7524C26.425 43.8342 26.2135 43.8763 26 43.8763C25.7864 43.8763 25.575 43.8342 25.3777 43.7524C25.1804 43.6706 25.0012 43.5508 24.8503 43.3997L8.6003 27.1497C8.29538 26.8448 8.12408 26.4312 8.12408 26C8.12408 25.5688 8.29538 25.1552 8.6003 24.8503C8.90522 24.5454 9.31877 24.3741 9.74999 24.3741C10.1812 24.3741 10.5948 24.5454 10.8997 24.8503L26 39.9526L41.1003 24.8503C41.2512 24.6992 41.4304 24.5794 41.6277 24.4976C41.825 24.4158 42.0364 24.3737 42.25 24.3737C42.4635 24.3737 42.675 24.4158 42.8723 24.4976C43.0695 24.5794 43.2488 24.6992 43.3997 24.8503ZM24.8503 27.1497C25.0012 27.3008 25.1804 27.4206 25.3777 27.5024C25.575 27.5842 25.7864 27.6263 26 27.6263C26.2135 27.6263 26.425 27.5842 26.6223 27.5024C26.8195 27.4206 26.9988 27.3008 27.1497 27.1497L43.3997 10.8997C43.7046 10.5948 43.8759 10.1812 43.8759 9.74999C43.8759 9.31877 43.7046 8.90522 43.3997 8.6003C43.0948 8.29538 42.6812 8.12408 42.25 8.12408C41.8188 8.12408 41.4052 8.29538 41.1003 8.6003L26 23.7026L10.8997 8.6003C10.5948 8.29538 10.1812 8.12408 9.74999 8.12408C9.31877 8.12408 8.90522 8.29538 8.6003 8.6003C8.29538 8.90522 8.12408 9.31877 8.12408 9.74999C8.12408 10.1812 8.29538 10.5948 8.6003 10.8997L24.8503 27.1497Z" fill="#FF8800"/>
<path d="M43.3997 76.8503C43.5508 77.0012 43.6706 77.1804 43.7524 77.3777C43.8342 77.575 43.8763 77.7864 43.8763 78C43.8763 78.2135 43.8342 78.425 43.7524 78.6223C43.6706 78.8195 43.5508 78.9988 43.3997 79.1497L27.1497 95.3997C26.9988 95.5508 26.8195 95.6706 26.6223 95.7524C26.425 95.8342 26.2135 95.8763 26 95.8763C25.7864 95.8763 25.575 95.8342 25.3777 95.7524C25.1804 95.6706 25.0012 95.5508 24.8503 95.3997L8.6003 79.1497C8.29538 78.8448 8.12408 78.4312 8.12408 78C8.12408 77.5688 8.29538 77.1552 8.6003 76.8503C8.90522 76.5454 9.31877 76.3741 9.74999 76.3741C10.1812 76.3741 10.5948 76.5454 10.8997 76.8503L26 91.9526L41.1003 76.8503C41.2512 76.6992 41.4304 76.5794 41.6277 76.4976C41.825 76.4158 42.0364 76.3737 42.25 76.3737C42.4635 76.3737 42.675 76.4158 42.8723 76.4976C43.0695 76.5794 43.2488 76.6992 43.3997 76.8503ZM24.8503 79.1497C25.0012 79.3008 25.1804 79.4206 25.3777 79.5024C25.575 79.5842 25.7864 79.6263 26 79.6263C26.2135 79.6263 26.425 79.5842 26.6223 79.5024C26.8195 79.4206 26.9988 79.3008 27.1497 79.1497L43.3997 62.8997C43.7046 62.5948 43.8759 62.1812 43.8759 61.75C43.8759 61.3188 43.7046 60.9052 43.3997 60.6003C43.0948 60.2954 42.6812 60.1241 42.25 60.1241C41.8188 60.1241 41.4052 60.2954 41.1003 60.6003L26 75.7026L10.8997 60.6003C10.5948 60.2954 10.1812 60.1241 9.74999 60.1241C9.31877 60.1241 8.90522 60.2954 8.6003 60.6003C8.29538 60.9052 8.12408 61.3188 8.12408 61.75C8.12408 62.1812 8.29538 62.5948 8.6003 62.8997L24.8503 79.1497Z" fill="#FF8800"/>
<path d="M43.3997 128.85C43.5508 129.001 43.6706 129.18 43.7524 129.378C43.8342 129.575 43.8763 129.786 43.8763 130C43.8763 130.214 43.8342 130.425 43.7524 130.622C43.6706 130.82 43.5508 130.999 43.3997 131.15L27.1497 147.4C26.9988 147.551 26.8195 147.671 26.6223 147.752C26.425 147.834 26.2135 147.876 26 147.876C25.7864 147.876 25.575 147.834 25.3777 147.752C25.1804 147.671 25.0012 147.551 24.8503 147.4L8.6003 131.15C8.29538 130.845 8.12408 130.431 8.12408 130C8.12408 129.569 8.29538 129.155 8.6003 128.85C8.90522 128.545 9.31877 128.374 9.74999 128.374C10.1812 128.374 10.5948 128.545 10.8997 128.85L26 143.953L41.1003 128.85C41.2512 128.699 41.4304 128.579 41.6277 128.498C41.825 128.416 42.0364 128.374 42.25 128.374C42.4635 128.374 42.675 128.416 42.8723 128.498C43.0695 128.579 43.2488 128.699 43.3997 128.85ZM24.8503 131.15C25.0012 131.301 25.1804 131.421 25.3777 131.502C25.575 131.584 25.7864 131.626 26 131.626C26.2135 131.626 26.425 131.584 26.6223 131.502C26.8195 131.421 26.9988 131.301 27.1497 131.15L43.3997 114.9C43.7046 114.595 43.8759 114.181 43.8759 113.75C43.8759 113.319 43.7046 112.905 43.3997 112.6C43.0948 112.295 42.6812 112.124 42.25 112.124C41.8188 112.124 41.4052 112.295 41.1003 112.6L26 127.703L10.8997 112.6C10.5948 112.295 10.1812 112.124 9.74999 112.124C9.31877 112.124 8.90522 112.295 8.6003 112.6C8.29538 112.905 8.12408 113.319 8.12408 113.75C8.12408 114.181 8.29538 114.595 8.6003 114.9L24.8503 131.15Z" fill="#FF8800"/>
<path d="M43.3997 180.85C43.5508 181.001 43.6706 181.18 43.7524 181.378C43.8342 181.575 43.8763 181.786 43.8763 182C43.8763 182.214 43.8342 182.425 43.7524 182.622C43.6706 182.82 43.5508 182.999 43.3997 183.15L27.1497 199.4C26.9988 199.551 26.8195 199.671 26.6223 199.752C26.425 199.834 26.2135 199.876 26 199.876C25.7864 199.876 25.575 199.834 25.3777 199.752C25.1804 199.671 25.0012 199.551 24.8503 199.4L8.6003 183.15C8.29538 182.845 8.12408 182.431 8.12408 182C8.12408 181.569 8.29538 181.155 8.6003 180.85C8.90522 180.545 9.31877 180.374 9.74999 180.374C10.1812 180.374 10.5948 180.545 10.8997 180.85L26 195.953L41.1003 180.85C41.2512 180.699 41.4304 180.579 41.6277 180.498C41.825 180.416 42.0364 180.374 42.25 180.374C42.4635 180.374 42.675 180.416 42.8723 180.498C43.0695 180.579 43.2488 180.699 43.3997 180.85ZM24.8503 183.15C25.0012 183.301 25.1804 183.421 25.3777 183.502C25.575 183.584 25.7864 183.626 26 183.626C26.2135 183.626 26.425 183.584 26.6223 183.502C26.8195 183.421 26.9988 183.301 27.1497 183.15L43.3997 166.9C43.7046 166.595 43.8759 166.181 43.8759 165.75C43.8759 165.319 43.7046 164.905 43.3997 164.6C43.0948 164.295 42.6812 164.124 42.25 164.124C41.8188 164.124 41.4052 164.295 41.1003 164.6L26 179.703L10.8997 164.6C10.5948 164.295 10.1812 164.124 9.74999 164.124C9.31877 164.124 8.90522 164.295 8.6003 164.6C8.29538 164.905 8.12408 165.319 8.12408 165.75C8.12408 166.181 8.29538 166.595 8.6003 166.9L24.8503 183.15Z" fill="#FF8800"/>
<path d="M43.3997 232.85C43.5508 233.001 43.6706 233.18 43.7524 233.378C43.8342 233.575 43.8763 233.786 43.8763 234C43.8763 234.214 43.8342 234.425 43.7524 234.622C43.6706 234.82 43.5508 234.999 43.3997 235.15L27.1497 251.4C26.9988 251.551 26.8195 251.671 26.6223 251.752C26.425 251.834 26.2135 251.876 26 251.876C25.7864 251.876 25.575 251.834 25.3777 251.752C25.1804 251.671 25.0012 251.551 24.8503 251.4L8.6003 235.15C8.29538 234.845 8.12408 234.431 8.12408 234C8.12408 233.569 8.29538 233.155 8.6003 232.85C8.90522 232.545 9.31877 232.374 9.74999 232.374C10.1812 232.374 10.5948 232.545 10.8997 232.85L26 247.953L41.1003 232.85C41.2512 232.699 41.4304 232.579 41.6277 232.498C41.825 232.416 42.0364 232.374 42.25 232.374C42.4635 232.374 42.675 232.416 42.8723 232.498C43.0695 232.579 43.2488 232.699 43.3997 232.85ZM24.8503 235.15C25.0012 235.301 25.1804 235.421 25.3777 235.502C25.575 235.584 25.7864 235.626 26 235.626C26.2135 235.626 26.425 235.584 26.6223 235.502C26.8195 235.421 26.9988 235.301 27.1497 235.15L43.3997 218.9C43.7046 218.595 43.8759 218.181 43.8759 217.75C43.8759 217.319 43.7046 216.905 43.3997 216.6C43.0948 216.295 42.6812 216.124 42.25 216.124C41.8188 216.124 41.4052 216.295 41.1003 216.6L26 231.703L10.8997 216.6C10.5948 216.295 10.1812 216.124 9.74999 216.124C9.31877 216.124 8.90522 216.295 8.6003 216.6C8.29538 216.905 8.12408 217.319 8.12408 217.75C8.12408 218.181 8.29538 218.595 8.6003 218.9L24.8503 235.15Z" fill="#FF8800"/>
<path d="M43.3997 284.85C43.5508 285.001 43.6706 285.18 43.7524 285.378C43.8342 285.575 43.8763 285.786 43.8763 286C43.8763 286.214 43.8342 286.425 43.7524 286.622C43.6706 286.82 43.5508 286.999 43.3997 287.15L27.1497 303.4C26.9988 303.551 26.8195 303.671 26.6223 303.752C26.425 303.834 26.2135 303.876 26 303.876C25.7864 303.876 25.575 303.834 25.3777 303.752C25.1804 303.671 25.0012 303.551 24.8503 303.4L8.6003 287.15C8.29538 286.845 8.12408 286.431 8.12408 286C8.12408 285.569 8.29538 285.155 8.6003 284.85C8.90522 284.545 9.31877 284.374 9.74999 284.374C10.1812 284.374 10.5948 284.545 10.8997 284.85L26 299.953L41.1003 284.85C41.2512 284.699 41.4304 284.579 41.6277 284.498C41.825 284.416 42.0364 284.374 42.25 284.374C42.4635 284.374 42.675 284.416 42.8723 284.498C43.0695 284.579 43.2488 284.699 43.3997 284.85ZM24.8503 287.15C25.0012 287.301 25.1804 287.421 25.3777 287.502C25.575 287.584 25.7864 287.626 26 287.626C26.2135 287.626 26.425 287.584 26.6223 287.502C26.8195 287.421 26.9988 287.301 27.1497 287.15L43.3997 270.9C43.7046 270.595 43.8759 270.181 43.8759 269.75C43.8759 269.319 43.7046 268.905 43.3997 268.6C43.0948 268.295 42.6812 268.124 42.25 268.124C41.8188 268.124 41.4052 268.295 41.1003 268.6L26 283.703L10.8997 268.6C10.5948 268.295 10.1812 268.124 9.74999 268.124C9.31877 268.124 8.90522 268.295 8.6003 268.6C8.29538 268.905 8.12408 269.319 8.12408 269.75C8.12408 270.181 8.29538 270.595 8.6003 270.9L24.8503 287.15Z" fill="#FF8800"/>
<path d="M43.3997 336.85C43.5508 337.001 43.6706 337.18 43.7524 337.378C43.8342 337.575 43.8763 337.786 43.8763 338C43.8763 338.214 43.8342 338.425 43.7524 338.622C43.6706 338.82 43.5508 338.999 43.3997 339.15L27.1497 355.4C26.9988 355.551 26.8195 355.671 26.6223 355.752C26.425 355.834 26.2135 355.876 26 355.876C25.7864 355.876 25.575 355.834 25.3777 355.752C25.1804 355.671 25.0012 355.551 24.8503 355.4L8.6003 339.15C8.29538 338.845 8.12408 338.431 8.12408 338C8.12408 337.569 8.29538 337.155 8.6003 336.85C8.90522 336.545 9.31877 336.374 9.74999 336.374C10.1812 336.374 10.5948 336.545 10.8997 336.85L26 351.953L41.1003 336.85C41.2512 336.699 41.4304 336.579 41.6277 336.498C41.825 336.416 42.0364 336.374 42.25 336.374C42.4635 336.374 42.675 336.416 42.8723 336.498C43.0695 336.579 43.2488 336.699 43.3997 336.85ZM24.8503 339.15C25.0012 339.301 25.1804 339.421 25.3777 339.502C25.575 339.584 25.7864 339.626 26 339.626C26.2135 339.626 26.425 339.584 26.6223 339.502C26.8195 339.421 26.9988 339.301 27.1497 339.15L43.3997 322.9C43.7046 322.595 43.8759 322.181 43.8759 321.75C43.8759 321.319 43.7046 320.905 43.3997 320.6C43.0948 320.295 42.6812 320.124 42.25 320.124C41.8188 320.124 41.4052 320.295 41.1003 320.6L26 335.703L10.8997 320.6C10.5948 320.295 10.1812 320.124 9.74999 320.124C9.31877 320.124 8.90522 320.295 8.6003 320.6C8.29538 320.905 8.12408 321.319 8.12408 321.75C8.12408 322.181 8.29538 322.595 8.6003 322.9L24.8503 339.15Z" fill="#FF8800"/>
<path d="M43.3997 388.85C43.5508 389.001 43.6706 389.18 43.7524 389.378C43.8342 389.575 43.8763 389.786 43.8763 390C43.8763 390.214 43.8342 390.425 43.7524 390.622C43.6706 390.82 43.5508 390.999 43.3997 391.15L27.1497 407.4C26.9988 407.551 26.8195 407.671 26.6223 407.752C26.425 407.834 26.2135 407.876 26 407.876C25.7864 407.876 25.575 407.834 25.3777 407.752C25.1804 407.671 25.0012 407.551 24.8503 407.4L8.6003 391.15C8.29538 390.845 8.12408 390.431 8.12408 390C8.12408 389.569 8.29538 389.155 8.6003 388.85C8.90522 388.545 9.31877 388.374 9.74999 388.374C10.1812 388.374 10.5948 388.545 10.8997 388.85L26 403.953L41.1003 388.85C41.2512 388.699 41.4304 388.579 41.6277 388.498C41.825 388.416 42.0364 388.374 42.25 388.374C42.4635 388.374 42.675 388.416 42.8723 388.498C43.0695 388.579 43.2488 388.699 43.3997 388.85ZM24.8503 391.15C25.0012 391.301 25.1804 391.421 25.3777 391.502C25.575 391.584 25.7864 391.626 26 391.626C26.2135 391.626 26.425 391.584 26.6223 391.502C26.8195 391.421 26.9988 391.301 27.1497 391.15L43.3997 374.9C43.7046 374.595 43.8759 374.181 43.8759 373.75C43.8759 373.319 43.7046 372.905 43.3997 372.6C43.0948 372.295 42.6812 372.124 42.25 372.124C41.8188 372.124 41.4052 372.295 41.1003 372.6L26 387.703L10.8997 372.6C10.5948 372.295 10.1812 372.124 9.74999 372.124C9.31877 372.124 8.90522 372.295 8.6003 372.6C8.29538 372.905 8.12408 373.319 8.12408 373.75C8.12408 374.181 8.29538 374.595 8.6003 374.9L24.8503 391.15Z" fill="#FF8800"/>
</svg>
